<svg width="85" height="92" viewBox="0 0 85 92" fill="none" xmlns="http://www.w3.org/2000/svg">
<path d="M5.07704 70.4472C8.46379 64.6204 12.0773 51.1354 12.0773 35.2108C12.0773 27.1591 15.2833 19.437 20.9903 13.7435C26.6972 8.04987 34.4377 4.85113 42.5088 4.85113C50.5799 4.85113 58.3204 8.04987 64.0273 13.7435C69.7343 19.437 72.9403 27.1591 72.9403 35.2108C72.9403 51.131 76.5539 64.6207 79.9407 70.4474L79.9408 70.4476C80.0777 70.6829 80.1502 70.95 80.1509 71.2221C80.1515 71.4942 80.0804 71.7617 79.9446 71.9977L79.9433 72C79.811 72.2359 79.6176 72.432 79.3832 72.568C79.1489 72.7039 78.8822 72.7746 78.611 72.7726H78.6092L6.41291 72.7726L6.41111 72.7727C6.13994 72.7746 5.87325 72.7039 5.6389 72.568C5.40455 72.432 5.21114 72.2359 5.07883 72L5.07716 71.9971C4.94077 71.7615 4.86899 71.4941 4.86899 71.2221C4.86899 70.9501 4.94072 70.6829 5.07704 70.4472ZM5.07704 70.4472C5.077 70.4473 5.07696 70.4474 5.07692 70.4474L4.86078 70.3218L5.07716 70.447C5.07712 70.4471 5.07708 70.4472 5.07704 70.4472ZM78.6047 76.8738H78.6056C79.5981 76.8703 80.5723 76.6067 81.4305 76.1093C82.2888 75.6119 83.0011 74.8982 83.496 74.0396C83.9908 73.1809 84.2509 72.2076 84.25 71.2171C84.2491 70.2266 83.9874 69.2538 83.491 68.3961C80.916 63.9438 77.0499 51.4454 77.0499 35.2108C77.0499 26.071 73.4106 17.3057 66.9328 10.8431C60.4551 4.38053 51.6695 0.75 42.5088 0.75C33.3481 0.75 24.5625 4.38053 18.0848 10.8431C11.607 17.3057 7.9677 26.071 7.9677 35.2108C7.9677 51.4455 4.09701 63.9437 1.52235 68.3731C1.02012 69.2316 0.753707 70.2072 0.750038 71.2013C0.746369 72.1956 1.0057 73.1733 1.50182 74.0357C1.99793 74.898 2.71324 75.6145 3.5755 76.1127C4.43776 76.611 5.41646 76.8735 6.41284 76.8738H26.1478C26.6496 80.8053 28.5575 84.4269 31.5244 87.0696C34.5469 89.762 38.457 91.25 42.5088 91.25C46.5606 91.25 50.4707 89.762 53.4932 87.0696C56.4601 84.4269 58.368 80.8053 58.8698 76.8738H78.6047ZM42.5088 87.1772C39.5311 87.1769 36.6532 86.1062 34.4024 84.1613C32.2249 82.2797 30.7754 79.7018 30.2983 76.8738H54.7193C54.2422 79.7018 52.7927 82.2797 50.6152 84.1613C48.3644 86.1062 45.4865 87.1769 42.5088 87.1772Z" fill="#1A5890" stroke="#1A5890" stroke-width="3"/>
</svg>
