<svg width="48" height="17" viewBox="0 0 48 17" fill="none" xmlns="http://www.w3.org/2000/svg">
<path d="M9.78696 0.499286C9.94658 0.657153 10.0732 0.844693 10.1596 1.05116C10.246 1.25763 10.2905 1.47898 10.2905 1.70252C10.2905 1.92606 10.246 2.1474 10.1596 2.35387C10.0732 2.56035 9.94658 2.74789 9.78696 2.90575L5.85489 6.80096H18.8578C19.3124 6.80096 19.7484 6.98002 20.0698 7.29873C20.3913 7.61745 20.5719 8.04972 20.5719 8.50045C20.5719 8.95118 20.3913 9.38345 20.0698 9.70216C19.7484 10.0209 19.3124 10.1999 18.8578 10.1999H5.85489L9.78696 14.0951C10.1088 14.4143 10.2896 14.8471 10.2896 15.2984C10.2896 15.7497 10.1088 16.1825 9.78696 16.5016C9.4651 16.8207 9.02857 17 8.5734 17C8.11823 17 7.68169 16.8207 7.35984 16.5016L0.503572 9.70368C0.343947 9.54581 0.217301 9.35827 0.13089 9.1518C0.0444793 8.94533 0 8.72399 0 8.50045C0 8.27691 0.0444793 8.05556 0.13089 7.84909C0.217301 7.64262 0.343947 7.45508 0.503572 7.29721L7.35984 0.499286C7.51906 0.341019 7.70821 0.215451 7.91645 0.129775C8.12469 0.0440994 8.34794 0 8.5734 0C8.79886 0 9.0221 0.0440994 9.23034 0.129775C9.43859 0.215451 9.62774 0.341019 9.78696 0.499286ZM38.213 0.499286C38.3723 0.341019 38.5614 0.215451 38.7697 0.129775C38.9779 0.0440994 39.2011 0 39.4266 0C39.6521 0 39.8753 0.0440994 40.0835 0.129775C40.2918 0.215451 40.4809 0.341019 40.6402 0.499286L47.4964 7.29721C47.6561 7.45508 47.7827 7.64262 47.8691 7.84909C47.9555 8.05556 48 8.27691 48 8.50045C48 8.72399 47.9555 8.94533 47.8691 9.1518C47.7827 9.35827 47.6561 9.54581 47.4964 9.70368L40.6402 16.5016C40.3183 16.8207 39.8818 17 39.4266 17C38.9714 17 38.5349 16.8207 38.213 16.5016C37.8912 16.1825 37.7104 15.7497 37.7104 15.2984C37.7104 14.8471 37.8912 14.4143 38.213 14.0951L42.1451 10.1999H29.1422C28.6876 10.1999 28.2516 10.0209 27.9302 9.70216C27.6087 9.38345 27.4281 8.95118 27.4281 8.50045C27.4281 8.04972 27.6087 7.61745 27.9302 7.29873C28.2516 6.98002 28.6876 6.80096 29.1422 6.80096H42.1451L38.213 2.90575C38.0534 2.74789 37.9268 2.56035 37.8404 2.35387C37.754 2.1474 37.7095 1.92606 37.7095 1.70252C37.7095 1.47898 37.754 1.25763 37.8404 1.05116C37.9268 0.844693 38.0534 0.657153 38.213 0.499286Z" fill="#2889C1"/>
</svg>
