<svg width="40" height="30" viewBox="0 0 40 30" fill="none" xmlns="http://www.w3.org/2000/svg">
<path fill-rule="evenodd" clip-rule="evenodd" d="M30.4563 13.5057C31.8291 19.1179 28.3418 24.768 22.6673 26.1257C16.9935 27.483 11.2805 24.0345 9.90827 18.4219C8.53527 12.8097 12.0228 7.15965 17.6965 5.8019L17.716 5.7974C23.3631 4.43239 29.0596 7.85315 30.4401 13.4387L30.4563 13.5057Z" fill="#59B3D8"/>
<path fill-rule="evenodd" clip-rule="evenodd" d="M18.687 20.1455C18.6838 18.6113 17.4233 17.3705 15.8723 17.3742H15.447C15.8075 15.8912 14.885 14.4005 13.3855 14.0437C13.1642 13.9909 12.9373 13.9652 12.7098 13.9672H9.79074C9.15949 17.18 10.1022 20.499 12.3343 22.9163H15.8715C17.4228 22.92 18.6833 21.6793 18.687 20.1455ZM22.1728 8.65522C22.1728 8.81747 22.194 8.97922 22.2365 9.13647H21.0213C19.41 9.13647 18.1045 10.4285 18.1045 12.0222C18.1045 13.6152 19.41 14.9072 21.0213 14.9072H30.6826C30.3681 11.4605 28.3111 8.40472 25.217 6.78796H24.0658C23.0215 6.78746 22.1753 7.62272 22.1728 8.65522ZM30.6836 17.052H24.92C23.6053 17.0487 22.5373 18.0988 22.532 19.3983C22.5316 19.7891 22.6303 20.1737 22.819 20.516C21.5683 20.9025 20.871 22.2195 21.262 23.4573C21.5725 24.4408 22.4965 25.109 23.5385 25.1045H25.1453C28.2238 23.491 30.2971 20.477 30.6836 17.052Z" fill="#B6DEEC"/>
<path fill-rule="evenodd" clip-rule="evenodd" d="M8.34551 10.0029C8.30323 10.0034 8.26127 9.99551 8.22204 9.97973C8.18281 9.96395 8.14707 9.94059 8.11688 9.91098C8.0867 9.88137 8.06264 9.8461 8.04611 9.80718C8.02957 9.76826 8.02087 9.72646 8.02051 9.68418V9.68343C8.01526 7.66742 6.36126 6.03667 4.323 6.03867C4.23782 6.03907 4.15596 6.00565 4.0954 5.94574C4.03484 5.88584 4.00053 5.80435 4 5.71917C4 5.54342 4.14475 5.40042 4.323 5.40042C6.35876 5.40217 8.01201 3.77466 8.02051 1.7619C8.02253 1.71947 8.03291 1.67785 8.05106 1.63944C8.06921 1.60103 8.09477 1.56658 8.12627 1.53808C8.15777 1.50958 8.19459 1.48758 8.23462 1.47335C8.27464 1.45911 8.31709 1.45293 8.35951 1.45515C8.52751 1.46215 8.66202 1.59515 8.66977 1.7619C8.67502 3.77716 10.3295 5.40792 12.3678 5.40617C12.546 5.40617 12.6908 5.54917 12.6908 5.72542C12.6908 5.90192 12.546 6.04517 12.3678 6.04517C10.3308 6.04242 8.67627 7.67192 8.66977 9.68668C8.66727 9.86168 8.52251 10.0029 8.34551 10.0029Z" fill="#BCE300"/>
<path fill-rule="evenodd" clip-rule="evenodd" d="M31.1501 28.5453C31.0995 28.5456 31.0509 28.5258 31.0149 28.4902C30.9789 28.4546 30.9585 28.4062 30.9581 28.3556C30.9536 27.1503 29.9631 26.1758 28.7446 26.1783C28.7195 26.1787 28.6947 26.174 28.6714 26.1647C28.6481 26.1553 28.6269 26.1415 28.609 26.1239C28.5911 26.1063 28.5769 26.0854 28.5671 26.0623C28.5573 26.0392 28.5523 26.0144 28.5521 25.9893C28.5521 25.8846 28.6376 25.7996 28.7434 25.7996H28.7446C29.9626 25.8001 30.9511 24.8263 30.9556 23.6218C30.9557 23.5964 30.9608 23.5713 30.9707 23.5479C30.9805 23.5245 30.9949 23.5033 31.013 23.4855C31.0311 23.4676 31.0525 23.4536 31.076 23.4441C31.0996 23.4346 31.1247 23.4298 31.1501 23.4301C31.1755 23.4299 31.2006 23.4347 31.224 23.4443C31.2475 23.4538 31.2688 23.4679 31.2868 23.4857C31.3048 23.5036 31.3191 23.5247 31.3289 23.5481C31.3387 23.5714 31.3438 23.5965 31.3439 23.6218C31.3484 24.8263 32.3369 25.8001 33.5546 25.7996C33.5797 25.7992 33.6046 25.8039 33.6279 25.8132C33.6512 25.8226 33.6724 25.8364 33.6903 25.854C33.7082 25.8715 33.7224 25.8925 33.7322 25.9156C33.7419 25.9387 33.747 25.9635 33.7471 25.9886C33.7471 26.0136 33.7421 26.0384 33.7325 26.0615C33.7228 26.0846 33.7087 26.1056 33.691 26.1232C33.6732 26.1408 33.6521 26.1548 33.6289 26.1642C33.6057 26.1737 33.5809 26.1785 33.5559 26.1783H33.5546C32.3369 26.1778 31.3476 27.1516 31.3439 28.3568C31.3432 28.4074 31.3225 28.4557 31.2863 28.4911C31.25 28.5264 31.2007 28.5459 31.1501 28.5453Z" fill="#0072C5"/>
<path fill-rule="evenodd" clip-rule="evenodd" d="M10.5003 21.4547C10.4711 21.4549 10.443 21.4432 10.4222 21.4224C10.4014 21.4015 10.3896 21.3731 10.3894 21.3434C10.3868 20.6366 9.81482 20.065 9.11116 20.0665C9.09668 20.0667 9.08231 20.064 9.06887 20.0585C9.05542 20.053 9.04318 20.0449 9.03285 20.0346C9.02252 20.0243 9.01429 20.012 9.00865 19.9985C9.00302 19.9849 9.00007 19.9704 9 19.9557C9 19.8942 9.04937 19.8444 9.11044 19.8444H9.11116C9.81453 19.8447 10.3854 19.2736 10.388 18.5672C10.388 18.5523 10.391 18.5376 10.3967 18.5238C10.4023 18.5101 10.4107 18.4977 10.4211 18.4872C10.4315 18.4768 10.4439 18.4685 10.4575 18.4629C10.4711 18.4574 10.4856 18.4546 10.5003 18.4547C10.5149 18.4546 10.5294 18.4575 10.543 18.4631C10.5565 18.4687 10.5688 18.4769 10.5792 18.4874C10.5896 18.4978 10.5979 18.5102 10.6035 18.5239C10.6092 18.5376 10.6121 18.5523 10.6122 18.5672C10.6148 19.2736 11.1856 19.8447 11.8888 19.8444C11.9033 19.8442 11.9177 19.8469 11.9311 19.8524C11.9446 19.8579 11.9568 19.866 11.9672 19.8763C11.9775 19.8866 11.9857 19.8989 11.9913 19.9124C11.997 19.926 11.9999 19.9405 12 19.9552C12 19.9699 11.9971 19.9844 11.9915 19.998C11.986 20.0115 11.9778 20.0238 11.9676 20.0342C11.9573 20.0445 11.9451 20.0527 11.9317 20.0583C11.9183 20.0638 11.904 20.0666 11.8896 20.0665H11.8888C11.1856 20.0662 10.6143 20.6373 10.6122 21.3442C10.6118 21.3738 10.5998 21.4022 10.5789 21.4229C10.558 21.4436 10.5298 21.4551 10.5006 21.4547H10.5003Z" fill="#FFEA00"/>
<path fill-rule="evenodd" clip-rule="evenodd" d="M35.5795 6.55685C34.5707 4.92209 32.0357 4.54459 28.2529 5.46084C27.0744 5.75667 25.9146 6.12265 24.7797 6.55685C25.5087 6.90911 26.1953 7.34297 26.8264 7.8501C27.4699 7.6411 28.1017 7.4526 28.7044 7.30685C29.712 7.04291 30.7469 6.898 31.7882 6.8751C33.0275 6.8751 33.711 7.17785 33.9397 7.5466C34.3137 8.15235 33.9695 9.75061 31.7695 12.2644C31.378 12.7116 30.938 13.1646 30.4747 13.6201C28.0589 15.9283 25.3881 17.9537 22.5139 19.6574C19.6595 21.4246 16.6123 22.8594 13.4316 23.9337C9.60238 25.1677 6.98837 25.1427 6.40187 24.1957C5.81637 23.2486 6.98787 20.9336 9.84588 18.1231C9.67089 17.3241 9.59216 16.5071 9.61138 15.6894C5.06137 19.7571 3.58886 23.2807 4.76461 25.1847C5.38037 26.1809 6.72562 26.7419 8.69088 26.7419C11.0248 26.6442 13.3242 26.1425 15.4866 25.2589C18.2792 24.1814 20.9664 22.8486 23.5142 21.2774C26.0795 19.7421 28.4968 17.9722 30.7352 15.9904C31.6124 15.2117 32.4428 14.3818 33.222 13.5051C35.7737 10.5914 36.5885 8.1881 35.5795 6.55685Z" fill="#1A5890"/>
<path fill-rule="evenodd" clip-rule="evenodd" d="M30.0004 9.60464C29.9614 9.60485 29.924 9.58934 29.8962 9.56152C29.8685 9.5337 29.8528 9.49584 29.8526 9.45626C29.8491 8.51379 29.0864 7.75176 28.1482 7.75372C28.1289 7.75397 28.1097 7.75035 28.0918 7.74305C28.0739 7.73574 28.0576 7.72491 28.0438 7.71117C28.03 7.69743 28.0191 7.68106 28.0115 7.663C28.004 7.64493 28.0001 7.62554 28 7.60592C28 7.52401 28.0658 7.45754 28.1473 7.45754C29.0851 7.45794 29.8472 6.69649 29.8506 5.75461C29.8507 5.73475 29.8546 5.71512 29.8622 5.69682C29.8698 5.67852 29.8809 5.66193 29.8948 5.64799C29.9087 5.63405 29.9252 5.62305 29.9433 5.61561C29.9614 5.60818 29.9808 5.60446 30.0004 5.60466C30.0199 5.60453 30.0392 5.60831 30.0573 5.61578C30.0753 5.62325 30.0918 5.63427 30.1056 5.6482C30.1195 5.66213 30.1305 5.6787 30.138 5.69695C30.1456 5.71521 30.1495 5.7348 30.1496 5.75461C30.153 6.69649 30.9141 7.45794 31.8518 7.45754C31.8711 7.45729 31.8903 7.46091 31.9082 7.46821C31.9261 7.47552 31.9424 7.48635 31.9562 7.50009C31.97 7.51383 31.9809 7.5302 31.9885 7.54827C31.996 7.56633 31.9999 7.58573 32 7.60534C32 7.62492 31.9961 7.64429 31.9887 7.66236C31.9813 7.68043 31.9704 7.69683 31.9567 7.71062C31.9431 7.72441 31.9268 7.73531 31.909 7.74271C31.8911 7.7501 31.872 7.75385 31.8527 7.75372C30.9151 7.75333 30.1525 8.51477 30.1496 9.45724C30.1491 9.49682 30.1331 9.53458 30.1052 9.56222C30.0773 9.58985 30.0394 9.60511 30.0004 9.60464Z" fill="#FF6DCC"/>
</svg>
