<svg width="200" height="200" viewBox="0 0 200 200" fill="none" xmlns="http://www.w3.org/2000/svg">
<circle cx="141.736" cy="37.5776" r="3.78915" transform="rotate(-36.9164 141.736 37.5776)" fill="#2889C1"/>
<circle cx="53.4653" cy="167.545" r="3.27907" transform="rotate(-36.9164 53.4653 167.545)" fill="#2889C1"/>
<circle cx="139.404" cy="91.9917" r="2.91473" transform="rotate(-36.9164 139.404 91.9917)" fill="#2889C1"/>
<circle cx="161.968" cy="51.2102" r="2.91473" transform="rotate(-36.9164 161.968 51.2102)" fill="#2889C1"/>
<circle cx="90.9497" cy="114.539" r="2.91473" transform="rotate(-36.9164 90.9497 114.539)" fill="#2889C1"/>
<circle cx="64.3792" cy="132.284" r="2.91473" transform="rotate(-36.9164 64.3792 132.284)" fill="#2889C1"/>
<circle cx="114.296" cy="91.2674" r="2.18605" transform="rotate(-36.9164 114.296 91.2674)" fill="#2889C1"/>
<path d="M147.457 40.7626L157.79 47.861" stroke="#2889C1" stroke-width="0.997254" stroke-linecap="round"/>
<path d="M159.911 55.3896L142.422 87.3729" stroke="#2889C1" stroke-width="0.997254" stroke-linecap="round"/>
<path d="M133.908 91.8237L118.363 90.4254" stroke="#2889C1" stroke-width="0.997254" stroke-linecap="round"/>
<path d="M111.241 94.152L94.9056 111.356" stroke="#2889C1" stroke-width="0.997254" stroke-linecap="round"/>
<path d="M86.3074 117.318L68.832 128.996" stroke="#2889C1" stroke-width="0.997254" stroke-linecap="round"/>
<path d="M62.6216 137.06L55.7091 161.783" stroke="#2889C1" stroke-width="0.997254" stroke-linecap="round"/>
</svg>
