<svg width="40" height="30" viewBox="0 0 40 30" fill="none" xmlns="http://www.w3.org/2000/svg">
<path d="M3.33165 4.02539L5.84627 9.2568H9.61822L7.10359 4.02539H9.61822L12.1328 9.2568H15.9048L13.3902 4.02539H15.9048L18.4194 9.2568H22.1914L19.6767 4.02539H23.4487C24.1402 4.02539 24.7324 4.28173 25.2253 4.79441C25.7181 5.30709 25.9641 5.92265 25.9633 6.64109V22.3353C25.9633 23.0546 25.7173 23.6706 25.2253 24.1833C24.7332 24.696 24.141 24.9519 23.4487 24.951H3.33165C2.64012 24.951 2.04835 24.6951 1.55632 24.1833C1.06429 23.6715 0.817855 23.0555 0.817017 22.3353V6.64109C0.817017 5.92178 1.06345 5.30621 1.55632 4.79441C2.04918 4.2826 2.64096 4.02626 3.33165 4.02539ZM3.33165 11.8725V22.3353H23.4487V11.8725H3.33165Z" fill="#808080"/>
<path d="M15.4602 16.4375C15.6545 16.5542 15.6545 16.846 15.4602 16.9627L12.1328 18.961C11.9385 19.0777 11.6956 18.9318 11.6956 18.6984V14.7018C11.6956 14.4684 11.9385 14.3226 12.1328 14.4393L15.4602 16.4375Z" fill="#808080"/>
<path fill-rule="evenodd" clip-rule="evenodd" d="M25.7324 23.4445L29.1652 25.0423L30.6821 25.7483C31.3765 26.0715 32.1478 26.0366 32.8112 25.7203C33.4688 25.4068 33.9839 24.8388 34.275 24.162L35.0483 22.3642L36.595 18.7685L38.1417 15.1728L38.9151 13.3749C39.2062 12.6981 39.2701 11.9202 39.0566 11.2012C38.8412 10.4759 38.3523 9.8545 37.6578 9.5313L36.141 8.82531L30.0736 6.00137L28.5567 5.29538C27.8623 4.97218 27.091 5.00705 26.4276 5.32333C26.2046 5.42967 25.9979 5.56527 25.8109 5.72446C25.9126 6.0087 25.9633 6.31424 25.963 6.64106V10.6051L26.8297 11.0085L26.072 12.77L25.963 12.7193V18.0916L27.0994 15.4496L31.3504 17.4282L30.1982 20.1068L29.046 22.7854L25.963 21.3505V22.3353C25.963 22.7373 25.8861 23.1071 25.7324 23.4445ZM27.2986 7.15635C27.4942 7.0631 27.6576 7.07828 27.7677 7.12956L28.3764 7.41284L27.6187 9.17435L26.4014 8.60779L26.7802 7.72703C26.8993 7.45019 27.0973 7.25232 27.2986 7.15635ZM29.0406 10.9369L30.1928 8.25825L34.4438 10.2368L33.2916 12.9154L32.1394 15.594L27.8884 13.6155L29.0406 10.9369ZM35.5025 12.8437L36.2602 11.0822L36.8689 11.3655C36.979 11.4168 37.0988 11.5333 37.1623 11.7472C37.2276 11.9672 37.2177 12.2527 37.0987 12.5295L36.7198 13.4103L35.5025 12.8437ZM34.7135 14.6779L35.9308 15.2445L35.1731 17.006L33.9558 16.4394L34.7135 14.6779ZM33.1668 18.2736L34.3841 18.8401L33.6264 20.6017L32.4091 20.0351L33.1668 18.2736ZM31.6201 21.8693L32.8374 22.4358L32.4586 23.3166C32.3395 23.5934 32.1415 23.7913 31.9401 23.8873C31.7446 23.9805 31.5812 23.9654 31.4711 23.9141L30.8624 23.6308L31.6201 21.8693Z" fill="#808080"/>
</svg>
