<svg width="40" height="30" viewBox="0 0 40 30" fill="none" xmlns="http://www.w3.org/2000/svg">
<path d="M3.40845 4.58691L5.91113 9.79348H9.66516L7.16247 4.58691H9.66516L12.1678 9.79348H15.9219L13.4192 4.58691H15.9219L18.4246 9.79348H22.1786L19.6759 4.58691H23.4299C24.1182 4.58691 24.7075 4.84204 25.1981 5.35228C25.6886 5.86252 25.9334 6.47516 25.9326 7.19019V22.8099C25.9326 23.5258 25.6878 24.1389 25.1981 24.6491C24.7084 25.1593 24.119 25.414 23.4299 25.4132H3.40845C2.72021 25.4132 2.13124 25.1585 1.64155 24.6491C1.15186 24.1397 0.906596 23.5266 0.905762 22.8099V7.19019C0.905762 6.47429 1.15102 5.86165 1.64155 5.35228C2.13208 4.8429 2.72104 4.58778 3.40845 4.58691ZM3.40845 12.3968V22.8099H23.4299V12.3968H3.40845Z" fill="#808080"/>
<path d="M15.4794 16.9401C15.6728 17.0563 15.6728 17.3466 15.4794 17.4628L12.1678 19.4516C11.9744 19.5677 11.7327 19.4225 11.7327 19.1902V15.2127C11.7327 14.9804 11.9744 14.8352 12.1678 14.9513L15.4794 16.9401Z" fill="#808080"/>
<path fill-rule="evenodd" clip-rule="evenodd" d="M25.9326 22.8894L29.3493 24.4796L30.8589 25.1823C31.5514 25.5046 32.3205 25.4697 32.9818 25.1544C33.6375 24.8419 34.1508 24.2757 34.441 23.6012L35.2106 21.8119L36.75 18.2333L38.2893 14.6547L39.059 12.8654C39.3492 12.1908 39.4129 11.4154 39.2 10.6986C38.9853 9.97559 38.4978 9.35593 37.8053 9.03362L36.2957 8.33098L30.2571 5.52045L28.7474 4.81781C28.0549 4.4955 27.2859 4.53033 26.6245 4.84563C26.4026 4.95141 26.197 5.08623 26.0109 5.24446C26.1133 5.52871 26.1644 5.83439 26.164 6.1615V10.1119L27.0205 10.5105L26.2701 12.255L26.164 12.2056V17.5699L27.2976 14.9346L31.5198 16.8997L30.3749 19.5612L29.23 22.2227L26.164 20.7957V21.7812C26.164 22.183 26.0869 22.5524 25.9326 22.8894ZM27.4955 6.67865C27.689 6.58638 27.8502 6.60161 27.9584 6.65199L28.5599 6.93192L27.8095 8.67636L26.6066 8.1165L26.9818 7.24428C27.0999 6.9697 27.2962 6.77366 27.4955 6.67865ZM29.2314 10.4389L30.3763 7.77733L34.5985 9.74246L33.4536 12.404L32.3087 15.0655L28.0866 13.1004L29.2314 10.4389ZM35.6645 12.3323L36.4149 10.5879L37.0163 10.8678C37.1246 10.9182 37.2429 11.033 37.3057 11.2446C37.3704 11.4625 37.3607 11.7454 37.2426 12.0199L36.8674 12.8922L35.6645 12.3323ZM34.8755 14.1665L36.0784 14.7263L35.328 16.4708L34.1252 15.9109L34.8755 14.1665ZM33.3362 17.7451L34.5391 18.305L33.7887 20.0494L32.5858 19.4895L33.3362 17.7451ZM31.7968 21.3237L32.9997 21.8836L32.6245 22.7558C32.5064 23.0304 32.3101 23.2264 32.1108 23.3214C31.9173 23.4137 31.7562 23.3985 31.6479 23.3481L31.0465 23.0682L31.7968 21.3237Z" fill="#808080"/>
</svg>
