<svg width="40" height="30" viewBox="0 0 40 30" fill="none" xmlns="http://www.w3.org/2000/svg">
<path d="M14.7552 26.2032H10.6529C10.1834 26.2032 9.80286 25.8226 9.80286 25.3532V12.0304C9.80286 11.7635 9.92818 11.5121 10.1413 11.3515L19.0584 4.63184C19.3613 4.40362 19.7787 4.40362 20.0816 4.63184L28.9987 11.3515C29.2118 11.5121 29.3371 11.7635 29.3371 12.0304V25.3532C29.3371 25.8226 28.9566 26.2032 28.4871 26.2032H24.3848C23.9154 26.2032 23.5348 25.8226 23.5348 25.3532V17.6616C23.5348 17.0265 23.0199 16.5116 22.3848 16.5116H16.7552C16.1201 16.5116 15.6052 17.0265 15.6052 17.6616V25.3532C15.6052 25.8226 15.2246 26.2032 14.7552 26.2032ZM7.85 11.2073V27C7.85 27.6351 8.36487 28.15 9 28.15H16.4081C17.0432 28.15 17.5581 27.6351 17.5581 27V19.3085C17.5581 18.839 17.9386 18.4585 18.4081 18.4585H20.7319C21.2014 18.4585 21.5819 18.839 21.5819 19.3085V27C21.5819 27.6351 22.0968 28.15 22.7319 28.15H30.14C30.7751 28.15 31.29 27.6351 31.29 27V11.2073C31.29 10.846 31.1202 10.5058 30.8316 10.2885L20.2616 2.33278C19.852 2.02454 19.288 2.02454 18.8784 2.33278L8.30843 10.2885C8.01978 10.5058 7.85 10.846 7.85 11.2073Z" fill="#808080" stroke="#808080" stroke-width="0.3"/>
</svg>
