<svg width="40" height="30" viewBox="0 0 40 30" fill="none" xmlns="http://www.w3.org/2000/svg">
<path d="M14.7562 26.2032H10.6531C10.1836 26.2032 9.80306 25.8226 9.80306 25.3532V12.0304C9.80306 11.7635 9.9284 11.5121 10.1416 11.3515L19.0599 4.63175C19.3628 4.40357 19.7801 4.40357 20.0829 4.63175L29.0013 11.3515C29.2145 11.5121 29.3398 11.7635 29.3398 12.0304V25.3532C29.3398 25.8226 28.9592 26.2032 28.4898 26.2032H24.3867C23.9173 26.2032 23.5367 25.8226 23.5367 25.3532V17.6616C23.5367 17.0265 23.0218 16.5116 22.3867 16.5116H16.7562C16.121 16.5116 15.6062 17.0265 15.6062 17.6616V25.3532C15.6062 25.8226 15.2256 26.2032 14.7562 26.2032ZM7.85 11.2074V27C7.85 27.6351 8.36487 28.15 9 28.15H16.4092C17.0444 28.15 17.5592 27.6351 17.5592 27V19.3085C17.5592 18.839 17.9398 18.4585 18.4092 18.4585H20.7336C21.2031 18.4585 21.5836 18.839 21.5836 19.3085V27C21.5836 27.6351 22.0985 28.15 22.7336 28.15H30.1429C30.778 28.15 31.2929 27.6351 31.2929 27V11.2074C31.2929 10.8461 31.1231 10.5058 30.8344 10.2885L20.2629 2.33269C19.8534 2.0245 19.2894 2.0245 18.8799 2.33268L8.30849 10.2885C8.0198 10.5058 7.85 10.8461 7.85 11.2074Z" fill="#1A5890" stroke="#1A5890" stroke-width="0.3"/>
</svg>
