<svg width="582" height="116" viewBox="0 0 582 116" fill="none" xmlns="http://www.w3.org/2000/svg">
<path d="M10.4844 18.7656C10.4844 17.4336 10.1328 16.4766 9.4375 15.8906C8.75 15.2969 7.92578 14.8125 6.96875 14.4375L10.7188 7.53125C13.332 8.60547 15.2656 9.96094 16.5156 11.5937C17.7734 13.2187 18.4063 15.4766 18.4063 18.3594V28.7188C18.4063 30 19.0195 30.6406 20.25 30.6406H47.5313V37.8594H33.2031V49.9687H58.4063V57.1875H0V49.9687H25.2031V37.8594H20.3281C16.9609 37.8594 14.4766 37.2188 12.875 35.9375C11.2812 34.6484 10.4844 32.2422 10.4844 28.7188V18.7656ZM68.168 20.9375C68.168 19.0625 68.5273 17.2813 69.2461 15.5938C69.9727 13.9063 71.0156 12.4375 72.3711 11.1875C73.7344 9.92969 75.3906 8.92188 77.3398 8.17188C79.2852 7.42188 81.4844 7.04687 83.9336 7.04687C86.3906 7.04687 88.5938 7.42188 90.543 8.17188C92.4883 8.92188 94.1406 9.92969 95.4961 11.1875C96.8594 12.4375 97.9023 13.9063 98.6211 15.5938C99.3398 17.2813 99.6992 19.0625 99.6992 20.9375C99.6992 22.8047 99.3398 24.5781 98.6211 26.2656C97.9023 27.9531 96.8594 29.4375 95.4961 30.7188C94.1406 32 92.4883 33.0156 90.543 33.7656C88.5938 34.5156 86.3906 34.8906 83.9336 34.8906C81.4844 34.8906 79.2852 34.5156 77.3398 33.7656C75.3906 33.0156 73.7344 32 72.3711 30.7188C71.0156 29.4375 69.9727 27.9531 69.2461 26.2656C68.5273 24.5781 68.168 22.8047 68.168 20.9375ZM95.6211 49H111.059V11.1406C111.059 9.91406 110.734 8.92188 110.09 8.17188C109.453 7.42188 108.656 6.91797 107.699 6.65625L111.543 0C114.051 1.01172 115.934 2.30859 117.184 3.89062C118.434 5.46484 119.059 7.74609 119.059 10.7344V62.25H111.059V56.0625H95.6211V49ZM62.8867 44.4375V37.2969H105.777V44.4375H87.9336V54.1406H79.9336V44.4375H62.8867ZM91.2148 76.9219C87.8594 76.9219 85.3789 76.2813 83.7773 75C82.1719 73.7188 81.3711 71.3125 81.3711 67.7813V56.4688H89.3711V67.4531C89.3711 68.4219 89.6094 69.0352 90.0898 69.2969C90.5781 69.5664 91.0898 69.7031 91.6211 69.7031H119.465V76.9219H91.2148ZM91.6992 20.9375C91.6992 19.0625 91.0039 17.4844 89.6211 16.2031C88.2344 14.9141 86.3398 14.2656 83.9336 14.2656C81.5352 14.2656 79.6406 14.9141 78.2461 16.2031C76.8594 17.4844 76.168 19.0625 76.168 20.9375C76.168 22.8555 76.8594 24.4609 78.2461 25.75C79.6406 27.0313 81.5352 27.6719 83.9336 27.6719C86.3398 27.6719 88.2344 27.0313 89.6211 25.75C91.0039 24.4609 91.6992 22.8555 91.6992 20.9375Z" fill="#302E2D"/>
<path d="M143.551 6.17187H151.707V12.9844H163.629V20.2031H151.551V20.6094C151.551 22.7969 151.773 24.7266 152.223 26.3906C152.68 28.0469 153.465 29.543 154.582 30.875C155.707 32.2109 157.227 33.4375 159.145 34.5625C161.07 35.6875 163.523 36.8125 166.504 37.9375L162.832 44.5937C161.926 44.2734 160.855 43.8437 159.629 43.3125C158.398 42.7812 157.09 42.1016 155.707 41.2656C154.32 40.4336 152.918 39.4453 151.504 38.2969C150.098 37.1523 148.777 35.8047 147.551 34.25C146.645 35.6367 145.574 36.918 144.348 38.0937C143.117 39.2734 141.836 40.3203 140.504 41.2344C139.168 42.1406 137.809 42.9297 136.426 43.5937C135.039 44.2617 133.758 44.7812 132.582 45.1562L128.91 38.4219C131.512 37.4023 133.746 36.3594 135.613 35.2969C137.488 34.2266 139.008 33.0078 140.176 31.6406C141.352 30.2773 142.207 28.6992 142.738 26.9062C143.277 25.1172 143.551 23.0156 143.551 20.6094V20.2031H131.629V12.9844H143.551V6.17187ZM184.035 55.5781H176.035V31.4375H163.629V24.2187H176.035V11.1406C176.035 9.91406 175.711 8.92188 175.066 8.17188C174.43 7.42188 173.633 6.91797 172.676 6.65625L176.52 0C179.02 1.01172 180.895 2.30859 182.145 3.89062C183.402 5.46484 184.035 7.74609 184.035 10.7344V55.5781ZM155.785 67.375C155.785 68.6562 156.398 69.2969 157.629 69.2969H184.754V76.5156H157.629C154.262 76.5156 151.777 75.875 150.176 74.5937C148.582 73.3125 147.785 70.9062 147.785 67.375V50.2969H155.785V67.375ZM211.867 34C208.992 34 206.844 33.4023 205.43 32.2031C204.012 30.9961 203.305 28.8125 203.305 25.6562V7.04687H239.961V34H211.867ZM192.43 47.6406V40.4219H250.836V47.6406H226.758V62.0781H218.758V47.6406H192.43ZM212.992 76.5156C209.625 76.5156 207.141 75.875 205.539 74.5937C203.945 73.3125 203.148 70.9062 203.148 67.375V53.8125H211.148V67.0625C211.148 68.0195 211.387 68.6289 211.867 68.8906C212.355 69.1601 212.867 69.2969 213.398 69.2969H240.68V76.5156H212.992ZM231.961 26.7812V14.2656H211.32V25.3437C211.32 26.3047 211.746 26.7812 212.602 26.7812H231.961ZM265.801 21.7344C265.801 19.6523 266.199 17.6484 267.004 15.7187C267.805 13.793 268.977 12.1094 270.52 10.6719C272.07 9.22656 273.941 8.07422 276.129 7.21875C278.316 6.35547 280.82 5.92187 283.645 5.92187C286.414 5.92187 288.91 6.35547 291.129 7.21875C293.348 8.07422 295.227 9.22656 296.77 10.6719C298.32 12.1094 299.492 13.793 300.285 15.7187C301.086 17.6484 301.488 19.6523 301.488 21.7344C301.488 23.8203 301.086 25.8242 300.285 27.75C299.492 29.6797 298.32 31.375 296.77 32.8437C295.227 34.3125 293.348 35.4766 291.129 36.3281C288.91 37.1836 286.414 37.6094 283.645 37.6094C280.82 37.6094 278.316 37.1836 276.129 36.3281C273.941 35.4766 272.07 34.3125 270.52 32.8437C268.977 31.375 267.805 29.6797 267.004 27.75C266.199 25.8242 265.801 23.8203 265.801 21.7344ZM254.441 50.0469V42.8281H312.848V50.0469H287.645V67.0625H279.645V50.0469H254.441ZM293.488 21.7344C293.488 19.3281 292.605 17.2969 290.848 15.6406C289.086 13.9844 286.684 13.1562 283.645 13.1562C280.602 13.1562 278.199 13.9844 276.441 15.6406C274.68 17.2969 273.801 19.3281 273.801 21.7344C273.801 24.1953 274.68 26.25 276.441 27.9062C278.199 29.5625 280.602 30.3906 283.645 30.3906C286.684 30.3906 289.086 29.5625 290.848 27.9062C292.605 26.25 293.488 24.1953 293.488 21.7344ZM345.652 26.9531C344.902 28.3398 343.809 29.6094 342.371 30.7656C340.934 31.9141 339.332 32.9297 337.574 33.8125C335.813 34.6875 333.984 35.4062 332.09 35.9687C330.191 36.5312 328.449 36.8906 326.855 37.0469L324.215 30.1562C326.66 29.8359 328.938 29.2891 331.043 28.5156C333.156 27.7344 334.984 26.7578 336.527 25.5781C338.078 24.4023 339.309 23.0117 340.215 21.4062C341.121 19.8047 341.574 18.0391 341.574 16.1094V15.7187H326.699V8.5H364.621V15.7187H349.73V16.1094C349.73 18.0391 350.168 19.8047 351.043 21.4062C351.926 23.0117 353.156 24.4023 354.73 25.5781C356.301 26.7578 358.141 27.7344 360.246 28.5156C362.359 29.2891 364.645 29.8359 367.105 30.1562L364.465 37.0469C362.809 36.8906 361.074 36.5469 359.262 36.0156C357.449 35.4766 355.699 34.7773 354.012 33.9219C352.332 33.0703 350.762 32.0547 349.293 30.875C347.824 29.6992 346.609 28.3906 345.652 26.9531ZM316.449 49.25V42.0312H374.855V49.25H349.652V67.4531H341.652V49.25H316.449Z" fill="#195890"/>
<path d="M433.508 62.9688H425.508V11.1406C425.508 9.91406 425.184 8.92188 424.539 8.17188C423.902 7.42188 423.105 6.91797 422.148 6.65625L425.992 0C428.5 1.01172 430.383 2.30859 431.633 3.89062C432.883 5.46484 433.508 7.74609 433.508 10.7344V26.2969H444.477V33.5312H433.508V62.9688ZM422.227 54.0625H379.742V46.8438H392.789V29.5938H400.789V46.8438H422.227V54.0625ZM408.227 40.0156V18.125H385.102V10.9062H416.227V40.0156H408.227ZM452.23 27.8281C452.23 24.7266 453.137 21.9961 454.949 19.6406H449.434V12.5938H463.277V5.125H471.434V12.5938H485.355V19.6406H479.684C481.547 21.9961 482.48 24.7266 482.48 27.8281C482.48 29.8086 482.078 31.6836 481.277 33.4531C480.473 35.2148 479.391 36.7656 478.027 38.1094C476.672 39.4453 475.074 40.4961 473.23 41.2656C471.395 42.0391 469.438 42.4219 467.355 42.4219C465.27 42.4219 463.309 42.0391 461.465 41.2656C459.629 40.4961 458.031 39.4453 456.668 38.1094C455.313 36.7656 454.234 35.2148 453.434 33.4531C452.629 31.6836 452.23 29.8086 452.23 27.8281ZM501.121 45.7969H493.121V11.1406C493.121 9.91406 492.797 8.92188 492.152 8.17188C491.516 7.42188 490.719 6.91797 489.762 6.65625L493.605 0C496.105 1.01172 497.98 2.30859 499.23 3.89062C500.488 5.46484 501.121 7.74609 501.121 10.7344V21.8906H512.09V29.1094H501.121V45.7969ZM492.324 76.9219V56.9531H465.027V49.7344H500.324V76.9219H492.324ZM460.152 27.8281C460.152 30.0781 460.844 31.9297 462.23 33.375C463.613 34.8125 465.324 35.5313 467.355 35.5313C469.387 35.5313 471.105 34.8125 472.512 33.375C473.926 31.9297 474.637 30.0781 474.637 27.8281C474.637 25.5781 473.926 23.7187 472.512 22.25C471.105 20.7812 469.387 20.0469 467.355 20.0469C465.324 20.0469 463.613 20.7969 462.23 22.2969C460.844 23.7969 460.152 25.6406 460.152 27.8281ZM569.527 55.8281H561.527V11.1406C561.527 9.91406 561.203 8.92188 560.559 8.17188C559.922 7.42188 559.125 6.91797 558.168 6.65625L562.012 0C564.52 1.01172 566.402 2.30859 567.652 3.89062C568.902 5.46484 569.527 7.74609 569.527 10.7344V25.0938H580.496V32.3281H569.527V55.8281ZM558.246 40.1875V47.4063H515.762V40.1875H528.637V25.3437H536.652V40.1875H558.246ZM541.84 67.375C541.84 68.6563 542.453 69.2969 543.684 69.2969H570.73V76.5156H543.684C540.328 76.5156 537.848 75.875 536.246 74.5938C534.641 73.3125 533.84 70.9063 533.84 67.375V53.5H541.84V67.375ZM544.246 36.0938V17.5625H521.121V10.3437H552.246V36.0938H544.246Z" fill="#302E2D"/>
<path d="M15.2344 115.293L8.26563 98.4805L4.92188 89.4805V115.293H0.0625V85.0117H7.98438L15.1406 102.621L18.2188 110.809V85.0117H23.1094V115.293H15.2344ZM36.7383 111.465C37.3945 111.465 38.043 111.309 38.6914 110.996C39.3359 110.684 39.832 110.309 40.1758 109.871C40.6445 109.184 40.9336 108.34 41.0508 107.34C41.1641 106.332 41.2227 105.367 41.2227 104.449C41.2227 103.543 41.1524 102.605 41.0195 101.637C40.8945 100.66 40.6133 99.8086 40.1758 99.0898C39.832 98.5898 39.3359 98.1992 38.6914 97.918C38.043 97.6289 37.3945 97.4805 36.7383 97.4805C36.082 97.4805 35.4297 97.6289 34.7852 97.918C34.1367 98.1992 33.6445 98.5898 33.3008 99.0898C32.8516 99.8086 32.5664 100.66 32.4414 101.637C32.3164 102.605 32.2539 103.543 32.2539 104.449C32.2539 105.367 32.3047 106.332 32.4102 107.34C32.5234 108.34 32.8203 109.184 33.3008 109.871C33.6445 110.309 34.1367 110.684 34.7852 110.996C35.4297 111.309 36.082 111.465 36.7383 111.465ZM36.7383 115.855C35.2266 115.855 33.9141 115.605 32.8008 115.105C31.6836 114.598 30.7539 113.949 30.0039 113.168C28.8984 112.035 28.1953 110.762 27.8945 109.355C27.6016 107.941 27.457 106.305 27.457 104.449C27.457 102.668 27.6172 101.051 27.9414 99.5898C28.2734 98.1211 28.9609 96.8398 30.0039 95.7461C30.7227 94.9883 31.6602 94.3515 32.8164 93.8398C33.9805 93.3203 35.2891 93.0586 36.7383 93.0586C38.1836 93.0586 39.4883 93.3203 40.6445 93.8398C41.8086 94.3515 42.7539 94.9883 43.4727 95.7461C44.5117 96.8398 45.1953 98.1211 45.5195 99.5898C45.8516 101.051 46.0195 102.668 46.0195 104.449C46.0195 106.305 45.8672 107.941 45.5664 109.355C45.2734 110.762 44.5742 112.035 43.4727 113.168C42.7227 113.949 41.7891 114.598 40.6758 115.105C39.5586 115.605 38.2461 115.855 36.7383 115.855ZM67.1875 93.3867L70.3906 111.137L71.625 105.684L75.0156 93.0117L79.5469 94.3711L73.1719 115.293H67.1875L64.8281 103.043L63.9844 97.1523L63.1406 103.043L60.7813 115.293H54.7969L48.4219 94.3711L52.9531 93.0117L56.3438 105.684L57.5781 111.137L60.7813 93.3867H67.1875ZM91.5156 111.465C92.1719 111.465 92.8203 111.309 93.4688 110.996C94.1133 110.684 94.6094 110.309 94.9531 109.871C95.4219 109.184 95.7109 108.34 95.8281 107.34C95.9414 106.332 96 105.367 96 104.449C96 103.543 95.9297 102.605 95.7969 101.637C95.6719 100.66 95.3906 99.8086 94.9531 99.0898C94.6094 98.5898 94.1133 98.1992 93.4688 97.918C92.8203 97.6289 92.1719 97.4805 91.5156 97.4805C90.8594 97.4805 90.207 97.6289 89.5625 97.918C88.9141 98.1992 88.4219 98.5898 88.0781 99.0898C87.6289 99.8086 87.3438 100.66 87.2188 101.637C87.0938 102.605 87.0313 103.543 87.0313 104.449C87.0313 105.367 87.082 106.332 87.1875 107.34C87.3008 108.34 87.5977 109.184 88.0781 109.871C88.4219 110.309 88.9141 110.684 89.5625 110.996C90.207 111.309 90.8594 111.465 91.5156 111.465ZM91.5156 115.855C90.0039 115.855 88.6914 115.605 87.5781 115.105C86.4609 114.598 85.5313 113.949 84.7813 113.168C83.6758 112.035 82.9727 110.762 82.6719 109.355C82.3789 107.941 82.2344 106.305 82.2344 104.449C82.2344 102.668 82.3945 101.051 82.7188 99.5898C83.0508 98.1211 83.7383 96.8398 84.7813 95.7461C85.5 94.9883 86.4375 94.3515 87.5938 93.8398C88.7578 93.3203 90.0664 93.0586 91.5156 93.0586C92.9609 93.0586 94.2656 93.3203 95.4219 93.8398C96.5859 94.3515 97.5313 94.9883 98.25 95.7461C99.2891 96.8398 99.9727 98.1211 100.297 99.5898C100.629 101.051 100.797 102.668 100.797 104.449C100.797 106.305 100.645 107.941 100.344 109.355C100.051 110.762 99.3516 112.035 98.25 113.168C97.5 113.949 96.5664 114.598 95.4531 115.105C94.3359 115.605 93.0234 115.855 91.5156 115.855ZM109.668 96.8711C110.324 95.7148 111.27 94.8555 112.512 94.293C113.75 93.7226 114.938 93.4336 116.074 93.4336C117.332 93.4336 118.449 93.6523 119.418 94.0898C120.395 94.5273 121.215 95.1328 121.871 95.9023C122.535 96.6758 123.043 97.5703 123.387 98.5898C123.73 99.6133 123.902 100.691 123.902 101.824V115.293H118.996V102.48C118.996 100.754 118.594 99.5351 117.793 98.8242C116.988 98.1172 115.996 97.7617 114.809 97.7617C113.578 97.7617 112.563 98.1172 111.762 98.8242C110.957 99.5351 110.559 100.754 110.559 102.48V115.293H105.652V101.777C105.652 100.457 105.48 99.4648 105.137 98.8086C104.793 98.1445 104.145 97.5273 103.199 96.9648C103.645 96.2773 104.074 95.6289 104.48 95.0117C104.887 94.3984 105.293 93.7461 105.699 93.0586C106.582 93.4648 107.344 93.9609 107.98 94.543C108.625 95.1289 109.188 95.9023 109.668 96.8711ZM163.223 111.949C161.805 113.262 160.309 114.195 158.738 114.746C157.164 115.301 155.605 115.574 154.066 115.574C152.473 115.574 150.91 115.355 149.379 114.918C147.855 114.473 146.527 113.715 145.395 112.652C144.738 112.059 144.105 111.371 143.504 110.59C142.91 109.801 142.383 108.895 141.926 107.871C141.477 106.852 141.113 105.691 140.832 104.387C140.551 103.086 140.41 101.633 140.41 100.027C140.41 97.0195 140.902 94.4883 141.895 92.4336C142.883 90.3711 144.082 88.7109 145.488 87.4492C146.496 86.543 147.73 85.8476 149.191 85.3555C150.648 84.8672 152.273 84.6211 154.066 84.6211C156.055 84.6211 157.738 84.9453 159.113 85.5898C160.496 86.2383 161.629 86.9023 162.504 87.5898C162.035 88.2265 161.582 88.8086 161.145 89.3398C160.707 89.8711 160.23 90.4492 159.723 91.0742C159.129 90.6054 158.324 90.1523 157.316 89.7148C156.316 89.2773 155.23 89.0586 154.066 89.0586C151.773 89.0586 149.965 89.7461 148.645 91.1211C148.238 91.5703 147.832 92.0586 147.426 92.5898C147.02 93.1211 146.652 93.7422 146.332 94.4492C146.02 95.1601 145.758 95.9648 145.551 96.8711C145.352 97.7773 145.254 98.832 145.254 100.027C145.254 101.383 145.363 102.566 145.582 103.574C145.801 104.574 146.098 105.449 146.473 106.199C146.855 106.949 147.273 107.586 147.723 108.105C148.18 108.629 148.648 109.074 149.129 109.449C149.816 109.98 150.59 110.387 151.457 110.668C152.32 110.949 153.191 111.09 154.066 111.09C155.23 111.09 156.363 110.852 157.457 110.371C158.559 109.883 159.555 109.23 160.441 108.418L163.223 111.949ZM174.957 111.465C175.613 111.465 176.262 111.309 176.91 110.996C177.555 110.684 178.051 110.309 178.395 109.871C178.863 109.184 179.152 108.34 179.27 107.34C179.383 106.332 179.441 105.367 179.441 104.449C179.441 103.543 179.371 102.605 179.238 101.637C179.113 100.66 178.832 99.8086 178.395 99.0898C178.051 98.5898 177.555 98.1992 176.91 97.918C176.262 97.6289 175.613 97.4805 174.957 97.4805C174.301 97.4805 173.648 97.6289 173.004 97.918C172.355 98.1992 171.863 98.5898 171.52 99.0898C171.07 99.8086 170.785 100.66 170.66 101.637C170.535 102.605 170.473 103.543 170.473 104.449C170.473 105.367 170.523 106.332 170.629 107.34C170.742 108.34 171.039 109.184 171.52 109.871C171.863 110.309 172.355 110.684 173.004 110.996C173.648 111.309 174.301 111.465 174.957 111.465ZM174.957 115.855C173.445 115.855 172.133 115.605 171.02 115.105C169.902 114.598 168.973 113.949 168.223 113.168C167.117 112.035 166.414 110.762 166.113 109.355C165.82 107.941 165.676 106.305 165.676 104.449C165.676 102.668 165.836 101.051 166.16 99.5898C166.492 98.1211 167.18 96.8398 168.223 95.7461C168.941 94.9883 169.879 94.3515 171.035 93.8398C172.199 93.3203 173.508 93.0586 174.957 93.0586C176.402 93.0586 177.707 93.3203 178.863 93.8398C180.027 94.3515 180.973 94.9883 181.691 95.7461C182.73 96.8398 183.414 98.1211 183.738 99.5898C184.07 101.051 184.238 102.668 184.238 104.449C184.238 106.305 184.086 107.941 183.785 109.355C183.492 110.762 182.793 112.035 181.691 113.168C180.941 113.949 180.008 114.598 178.895 115.105C177.777 115.605 176.465 115.855 174.957 115.855ZM205.406 108.793C205.406 109.949 205.16 110.957 204.672 111.809C204.191 112.652 203.523 113.355 202.672 113.918C201.828 114.48 200.836 114.898 199.703 115.168C198.578 115.441 197.352 115.574 196.031 115.574C194.582 115.574 193.102 115.395 191.594 115.027C190.082 114.664 188.43 113.934 186.641 112.84L188.719 108.934C189.383 109.371 190.066 109.742 190.766 110.043C191.473 110.336 192.156 110.574 192.813 110.762C193.477 110.949 194.086 111.086 194.641 111.168C195.191 111.242 195.656 111.277 196.031 111.277C196.625 111.277 197.203 111.246 197.766 111.184C198.336 111.121 198.832 111.012 199.25 110.855C199.676 110.699 200.016 110.465 200.266 110.152C200.516 109.84 200.641 109.449 200.641 108.98C200.641 108.441 200.5 108.023 200.219 107.73C199.938 107.43 199.582 107.199 199.156 107.043C198.738 106.887 198.254 106.773 197.703 106.699C197.148 106.617 196.625 106.527 196.125 106.434C195.176 106.277 194.207 106.07 193.219 105.809C192.227 105.539 191.316 105.152 190.484 104.652C189.648 104.145 188.973 103.496 188.453 102.715C187.941 101.926 187.688 100.934 187.688 99.7461C187.688 97.582 188.438 95.9414 189.938 94.8242C191.445 93.7109 193.523 93.1523 196.172 93.1523C197.867 93.1523 199.398 93.3984 200.766 93.8867C202.129 94.3672 203.254 94.832 204.141 95.2773L202.203 98.9492C201.672 98.6992 200.879 98.3945 199.828 98.0273C198.773 97.664 197.586 97.4492 196.266 97.3867C193.816 97.2305 192.563 97.9258 192.5 99.4648C192.5 99.7461 192.535 100.027 192.609 100.309C192.691 100.59 192.891 100.855 193.203 101.105C193.516 101.355 193.969 101.598 194.562 101.824C195.164 102.043 195.969 102.23 196.969 102.387C198.414 102.637 199.711 102.93 200.859 103.262C202.004 103.586 202.926 104.027 203.625 104.59C204.812 105.602 205.406 107.004 205.406 108.793ZM213.992 96.9648C214.68 95.7773 215.578 94.8945 216.695 94.3086C217.809 93.7265 219.027 93.4336 220.352 93.4336C221.609 93.4336 222.773 93.6953 223.836 94.2148C224.906 94.7383 225.805 95.5117 226.523 96.5429C227.5 95.3789 228.555 94.5703 229.68 94.1211C230.813 93.664 232.059 93.4336 233.414 93.4336C234.57 93.4336 235.641 93.6328 236.633 94.0273C237.621 94.414 238.449 94.9258 239.117 95.5586C239.992 96.3711 240.617 97.289 240.992 98.3086C241.375 99.332 241.57 100.504 241.57 101.824V115.293H236.711V102.621C236.711 100.895 236.313 99.6601 235.523 98.918C234.742 98.1797 233.781 97.8086 232.648 97.8086C231.461 97.8086 230.418 98.1758 229.523 98.9023C228.625 99.6211 228.18 100.785 228.18 102.387V115.293H223.32V102.621C223.32 100.895 222.902 99.6601 222.07 98.918C221.234 98.1797 220.258 97.8086 219.133 97.8086C217.934 97.8086 216.918 98.1797 216.086 98.918C215.25 99.6601 214.836 100.895 214.836 102.621V115.293H209.977V101.777C209.977 101.113 209.934 100.555 209.852 100.105C209.777 99.6484 209.649 99.2422 209.461 98.8867C209.274 98.5234 209.024 98.1914 208.711 97.8867C208.399 97.5859 208.016 97.293 207.57 97.0117L210.024 93.0586C210.906 93.4648 211.727 93.9922 212.477 94.6367C213.234 95.2851 213.742 96.0586 213.992 96.9648ZM254.105 111.465C254.762 111.465 255.41 111.309 256.059 110.996C256.703 110.684 257.199 110.309 257.543 109.871C258.012 109.184 258.301 108.34 258.418 107.34C258.531 106.332 258.59 105.367 258.59 104.449C258.59 103.543 258.52 102.605 258.387 101.637C258.262 100.66 257.98 99.8086 257.543 99.0898C257.199 98.5898 256.703 98.1992 256.059 97.918C255.41 97.6289 254.762 97.4805 254.105 97.4805C253.449 97.4805 252.797 97.6289 252.152 97.918C251.504 98.1992 251.012 98.5898 250.668 99.0898C250.219 99.8086 249.934 100.66 249.809 101.637C249.684 102.605 249.621 103.543 249.621 104.449C249.621 105.367 249.672 106.332 249.777 107.34C249.891 108.34 250.188 109.184 250.668 109.871C251.012 110.309 251.504 110.684 252.152 110.996C252.797 111.309 253.449 111.465 254.105 111.465ZM254.105 115.855C252.594 115.855 251.281 115.605 250.168 115.105C249.051 114.598 248.121 113.949 247.371 113.168C246.266 112.035 245.563 110.762 245.262 109.355C244.969 107.941 244.824 106.305 244.824 104.449C244.824 102.668 244.984 101.051 245.309 99.5898C245.641 98.1211 246.328 96.8398 247.371 95.7461C248.09 94.9883 249.027 94.3515 250.184 93.8398C251.348 93.3203 252.656 93.0586 254.105 93.0586C255.551 93.0586 256.855 93.3203 258.012 93.8398C259.176 94.3515 260.121 94.9883 260.84 95.7461C261.879 96.8398 262.563 98.1211 262.887 99.5898C263.219 101.051 263.387 102.668 263.387 104.449C263.387 106.305 263.234 107.941 262.934 109.355C262.641 110.762 261.941 112.035 260.84 113.168C260.09 113.949 259.156 114.598 258.043 115.105C256.926 115.605 255.613 115.855 254.105 115.855ZM284.555 108.793C284.555 109.949 284.309 110.957 283.82 111.809C283.34 112.652 282.672 113.355 281.82 113.918C280.977 114.48 279.984 114.898 278.852 115.168C277.727 115.441 276.5 115.574 275.18 115.574C273.73 115.574 272.25 115.395 270.742 115.027C269.23 114.664 267.578 113.934 265.789 112.84L267.867 108.934C268.531 109.371 269.215 109.742 269.914 110.043C270.621 110.336 271.305 110.574 271.961 110.762C272.625 110.949 273.234 111.086 273.789 111.168C274.34 111.242 274.805 111.277 275.18 111.277C275.773 111.277 276.352 111.246 276.914 111.184C277.484 111.121 277.98 111.012 278.398 110.855C278.824 110.699 279.164 110.465 279.414 110.152C279.664 109.84 279.789 109.449 279.789 108.98C279.789 108.441 279.648 108.023 279.367 107.73C279.086 107.43 278.73 107.199 278.305 107.043C277.887 106.887 277.402 106.773 276.852 106.699C276.297 106.617 275.773 106.527 275.273 106.434C274.324 106.277 273.355 106.07 272.367 105.809C271.375 105.539 270.465 105.152 269.633 104.652C268.797 104.145 268.121 103.496 267.602 102.715C267.09 101.926 266.836 100.934 266.836 99.7461C266.836 97.582 267.586 95.9414 269.086 94.8242C270.594 93.7109 272.672 93.1523 275.32 93.1523C277.016 93.1523 278.547 93.3984 279.914 93.8867C281.277 94.3672 282.402 94.832 283.289 95.2773L281.352 98.9492C280.82 98.6992 280.027 98.3945 278.977 98.0273C277.922 97.664 276.734 97.4492 275.414 97.3867C272.965 97.2305 271.711 97.9258 271.648 99.4648C271.648 99.7461 271.684 100.027 271.758 100.309C271.84 100.59 272.039 100.855 272.352 101.105C272.664 101.355 273.117 101.598 273.711 101.824C274.312 102.043 275.117 102.23 276.117 102.387C277.562 102.637 278.859 102.93 280.008 103.262C281.152 103.586 282.074 104.027 282.773 104.59C283.961 105.602 284.555 107.004 284.555 108.793ZM299.414 112.418L301.664 108.121C302.922 108.852 304.172 109.461 305.414 109.949C306.664 110.43 307.945 110.746 309.258 110.902C309.953 110.965 310.668 110.965 311.398 110.902C312.137 110.84 312.82 110.68 313.445 110.418C314.078 110.148 314.625 109.758 315.086 109.246C315.543 108.727 315.836 108.055 315.961 107.23C316.023 106.824 316.012 106.402 315.93 105.965C315.855 105.527 315.668 105.105 315.367 104.699C315.063 104.285 314.637 103.902 314.086 103.559C313.543 103.215 312.813 102.934 311.898 102.715C310.742 102.434 309.438 102.121 307.992 101.777C306.543 101.426 305.219 100.887 304.023 100.168C303.055 99.5742 302.266 98.8711 301.664 98.0586C301.07 97.2383 300.648 96.3711 300.398 95.4648C300.148 94.5508 300.043 93.6211 300.086 92.6836C300.137 91.7383 300.336 90.8398 300.68 89.9961C301.211 88.6445 302.109 87.4765 303.383 86.4961C304.664 85.5078 306.199 84.8984 307.992 84.668C310.156 84.418 312.246 84.5508 314.258 85.0586C316.266 85.5586 317.996 86.2148 319.445 87.0273L317.414 91.2148C316.32 90.6836 315.078 90.1992 313.695 89.7617C312.309 89.3242 310.953 89.1523 309.633 89.2461C306.996 89.4336 305.539 90.4883 305.258 92.4023C305.133 93.2461 305.258 94.0351 305.633 94.7617C306.008 95.4805 306.606 96.043 307.43 96.4492C308.492 96.9805 309.609 97.3828 310.789 97.6523C311.965 97.914 313.106 98.207 314.211 98.5273C315.813 98.9648 317.148 99.5859 318.211 100.387C319.281 101.18 320.07 102.332 320.57 103.84C321.016 105.039 321.156 106.301 320.992 107.621C320.836 108.934 320.43 110.168 319.773 111.324C319.211 112.242 318.516 112.996 317.695 113.59C316.883 114.184 315.984 114.648 315.008 114.98C314.039 115.316 313.031 115.523 311.992 115.605C310.961 115.68 309.938 115.668 308.93 115.574C307.231 115.418 305.578 115.059 303.977 114.496C302.371 113.926 300.852 113.23 299.414 112.418ZM341.32 113.027C340.215 113.934 339.105 114.586 337.992 114.98C336.875 115.379 335.609 115.574 334.195 115.574C332.59 115.574 331.156 115.293 329.898 114.73C328.648 114.16 327.59 113.379 326.727 112.387C325.859 111.398 325.199 110.223 324.742 108.855C324.281 107.492 324.055 105.992 324.055 104.355C324.055 102.855 324.281 101.43 324.742 100.074C325.199 98.7226 325.859 97.5273 326.727 96.4961C327.59 95.4648 328.648 94.6445 329.898 94.0273C331.156 93.414 332.59 93.1055 334.195 93.1055C335.703 93.1055 336.977 93.3242 338.008 93.7617C339.047 94.1992 339.977 94.707 340.789 95.2773L338.727 98.6211C337.902 98.1133 337.168 97.7734 336.523 97.6055C335.887 97.4297 335.141 97.3398 334.289 97.3398C333.445 97.3398 332.684 97.5234 332.008 97.8867C331.328 98.2539 330.75 98.7578 330.273 99.4023C329.805 100.039 329.445 100.785 329.195 101.637C328.945 102.48 328.82 103.387 328.82 104.355C328.82 105.273 328.945 106.152 329.195 106.996C329.445 107.84 329.805 108.586 330.273 109.23C330.75 109.879 331.328 110.387 332.008 110.762C332.684 111.137 333.445 111.324 334.289 111.324C335.266 111.324 336.18 111.164 337.023 110.84C337.875 110.508 338.57 110.152 339.102 109.777L341.32 113.027ZM349.805 93.3867V115.293H344.898V93.3867H349.805ZM344.523 87.4961C344.523 86.6523 344.777 85.9648 345.289 85.4336C345.809 84.8945 346.48 84.6211 347.305 84.6211C348.117 84.6211 348.797 84.8945 349.352 85.4336C349.902 85.9648 350.18 86.6523 350.18 87.4961C350.18 88.3203 349.902 88.9922 349.352 89.5117C348.797 90.0234 348.117 90.2773 347.305 90.2773C346.48 90.2773 345.809 90.0234 345.289 89.5117C344.777 88.9922 344.523 88.3203 344.523 87.4961ZM358.988 106.152C358.988 107.695 359.52 108.914 360.582 109.809C361.652 110.695 363.039 111.137 364.738 111.137C366.246 111.137 367.59 110.883 368.77 110.371C369.945 109.852 370.883 109.371 371.582 108.934L373.363 112.887C372.176 113.668 370.809 114.316 369.27 114.824C367.727 115.324 366.184 115.574 364.645 115.574C363.27 115.574 361.934 115.363 360.645 114.934C359.352 114.508 358.211 113.84 357.223 112.934C356.23 112.02 355.434 110.863 354.832 109.465C354.238 108.07 353.941 106.383 353.941 104.402C353.941 102.621 354.191 101.023 354.691 99.6055C355.199 98.1914 355.902 97.0039 356.801 96.043C357.695 95.0859 358.762 94.3555 360.004 93.8555C361.242 93.3555 362.602 93.1055 364.082 93.1055C367.227 93.1055 369.621 94.0976 371.27 96.0742C372.926 98.0547 373.754 100.941 373.754 104.73V106.152H358.988ZM364.082 97.4805C362.664 97.4805 361.492 97.8984 360.566 98.7305C359.637 99.5664 359.098 100.785 358.941 102.387H368.895C368.895 100.879 368.492 99.6836 367.691 98.8086C366.887 97.9258 365.684 97.4805 364.082 97.4805ZM382.664 96.8711C383.32 95.7148 384.266 94.8555 385.508 94.293C386.746 93.7226 387.934 93.4336 389.07 93.4336C390.328 93.4336 391.445 93.6523 392.414 94.0898C393.391 94.5273 394.211 95.1328 394.867 95.9023C395.531 96.6758 396.039 97.5703 396.383 98.5898C396.727 99.6133 396.898 100.691 396.898 101.824V115.293H391.992V102.48C391.992 100.754 391.59 99.5351 390.789 98.8242C389.984 98.1172 388.992 97.7617 387.805 97.7617C386.574 97.7617 385.559 98.1172 384.758 98.8242C383.953 99.5351 383.555 100.754 383.555 102.48V115.293H378.648V101.777C378.648 100.457 378.477 99.4648 378.133 98.8086C377.789 98.1445 377.141 97.5273 376.195 96.9648C376.641 96.2773 377.07 95.6289 377.477 95.0117C377.883 94.3984 378.289 93.7461 378.695 93.0586C379.578 93.4648 380.34 93.9609 380.977 94.543C381.621 95.1289 382.184 95.9023 382.664 96.8711ZM418.492 113.027C417.387 113.934 416.277 114.586 415.164 114.98C414.047 115.379 412.781 115.574 411.367 115.574C409.762 115.574 408.328 115.293 407.07 114.73C405.82 114.16 404.762 113.379 403.898 112.387C403.031 111.398 402.371 110.223 401.914 108.855C401.453 107.492 401.227 105.992 401.227 104.355C401.227 102.855 401.453 101.43 401.914 100.074C402.371 98.7226 403.031 97.5273 403.898 96.4961C404.762 95.4648 405.82 94.6445 407.07 94.0273C408.328 93.414 409.762 93.1055 411.367 93.1055C412.875 93.1055 414.148 93.3242 415.18 93.7617C416.219 94.1992 417.148 94.707 417.961 95.2773L415.898 98.6211C415.074 98.1133 414.34 97.7734 413.695 97.6055C413.059 97.4297 412.313 97.3398 411.461 97.3398C410.617 97.3398 409.855 97.5234 409.18 97.8867C408.5 98.2539 407.922 98.7578 407.445 99.4023C406.977 100.039 406.617 100.785 406.367 101.637C406.117 102.48 405.992 103.387 405.992 104.355C405.992 105.273 406.117 106.152 406.367 106.996C406.617 107.84 406.977 108.586 407.445 109.23C407.922 109.879 408.5 110.387 409.18 110.762C409.855 111.137 410.617 111.324 411.461 111.324C412.438 111.324 413.352 111.164 414.195 110.84C415.047 110.508 415.742 110.152 416.273 109.777L418.492 113.027ZM425.457 106.152C425.457 107.695 425.988 108.914 427.051 109.809C428.121 110.695 429.508 111.137 431.207 111.137C432.715 111.137 434.059 110.883 435.238 110.371C436.414 109.852 437.352 109.371 438.051 108.934L439.832 112.887C438.645 113.668 437.277 114.316 435.738 114.824C434.195 115.324 432.652 115.574 431.113 115.574C429.738 115.574 428.402 115.363 427.113 114.934C425.82 114.508 424.68 113.84 423.691 112.934C422.699 112.02 421.902 110.863 421.301 109.465C420.707 108.07 420.41 106.383 420.41 104.402C420.41 102.621 420.66 101.023 421.16 99.6055C421.668 98.1914 422.371 97.0039 423.27 96.043C424.164 95.0859 425.23 94.3555 426.473 93.8555C427.711 93.3555 429.07 93.1055 430.551 93.1055C433.695 93.1055 436.09 94.0976 437.738 96.0742C439.395 98.0547 440.223 100.941 440.223 104.73V106.152H425.457ZM430.551 97.4805C429.133 97.4805 427.961 97.8984 427.035 98.7305C426.105 99.5664 425.566 100.785 425.41 102.387H435.363C435.363 100.879 434.961 99.6836 434.16 98.8086C433.355 97.9258 432.152 97.4805 430.551 97.4805ZM477.746 111.949C476.328 113.262 474.832 114.195 473.262 114.746C471.688 115.301 470.129 115.574 468.59 115.574C466.996 115.574 465.434 115.355 463.902 114.918C462.379 114.473 461.051 113.715 459.918 112.652C459.262 112.059 458.629 111.371 458.027 110.59C457.434 109.801 456.906 108.895 456.449 107.871C456 106.852 455.637 105.691 455.355 104.387C455.074 103.086 454.934 101.633 454.934 100.027C454.934 97.0195 455.426 94.4883 456.418 92.4336C457.406 90.3711 458.605 88.7109 460.012 87.4492C461.02 86.543 462.254 85.8476 463.715 85.3555C465.172 84.8672 466.797 84.6211 468.59 84.6211C470.578 84.6211 472.262 84.9453 473.637 85.5898C475.02 86.2383 476.152 86.9023 477.027 87.5898C476.559 88.2265 476.105 88.8086 475.668 89.3398C475.23 89.8711 474.754 90.4492 474.246 91.0742C473.652 90.6054 472.848 90.1523 471.84 89.7148C470.84 89.2773 469.754 89.0586 468.59 89.0586C466.297 89.0586 464.488 89.7461 463.168 91.1211C462.762 91.5703 462.355 92.0586 461.949 92.5898C461.543 93.1211 461.176 93.7422 460.855 94.4492C460.543 95.1601 460.281 95.9648 460.074 96.8711C459.875 97.7773 459.777 98.832 459.777 100.027C459.777 101.383 459.887 102.566 460.105 103.574C460.324 104.574 460.621 105.449 460.996 106.199C461.379 106.949 461.797 107.586 462.246 108.105C462.703 108.629 463.172 109.074 463.652 109.449C464.34 109.98 465.113 110.387 465.98 110.668C466.844 110.949 467.715 111.09 468.59 111.09C469.754 111.09 470.887 110.852 471.98 110.371C473.082 109.883 474.078 109.23 474.965 108.418L477.746 111.949ZM484.762 106.152C484.762 107.695 485.293 108.914 486.355 109.809C487.426 110.695 488.813 111.137 490.512 111.137C492.02 111.137 493.363 110.883 494.543 110.371C495.719 109.852 496.656 109.371 497.355 108.934L499.137 112.887C497.949 113.668 496.582 114.316 495.043 114.824C493.5 115.324 491.957 115.574 490.418 115.574C489.043 115.574 487.707 115.363 486.418 114.934C485.125 114.508 483.984 113.84 482.996 112.934C482.004 112.02 481.207 110.863 480.605 109.465C480.012 108.07 479.715 106.383 479.715 104.402C479.715 102.621 479.965 101.023 480.465 99.6055C480.973 98.1914 481.676 97.0039 482.574 96.043C483.469 95.0859 484.535 94.3555 485.777 93.8555C487.016 93.3555 488.375 93.1055 489.855 93.1055C493 93.1055 495.395 94.0976 497.043 96.0742C498.699 98.0547 499.527 100.941 499.527 104.73V106.152H484.762ZM489.855 97.4805C488.438 97.4805 487.266 97.8984 486.34 98.7305C485.41 99.5664 484.871 100.785 484.715 102.387H494.668C494.668 100.879 494.266 99.6836 493.465 98.8086C492.66 97.9258 491.457 97.4805 489.855 97.4805ZM508.434 96.8711C509.09 95.7148 510.035 94.8555 511.277 94.293C512.516 93.7226 513.703 93.4336 514.84 93.4336C516.098 93.4336 517.215 93.6523 518.184 94.0898C519.16 94.5273 519.98 95.1328 520.637 95.9023C521.301 96.6758 521.809 97.5703 522.152 98.5898C522.496 99.6133 522.668 100.691 522.668 101.824V115.293H517.762V102.48C517.762 100.754 517.359 99.5351 516.559 98.8242C515.754 98.1172 514.762 97.7617 513.574 97.7617C512.344 97.7617 511.328 98.1172 510.527 98.8242C509.723 99.5351 509.324 100.754 509.324 102.48V115.293H504.418V101.777C504.418 100.457 504.246 99.4648 503.902 98.8086C503.559 98.1445 502.91 97.5273 501.965 96.9648C502.41 96.2773 502.84 95.6289 503.246 95.0117C503.652 94.3984 504.059 93.7461 504.465 93.0586C505.348 93.4648 506.109 93.9609 506.746 94.543C507.391 95.1289 507.953 95.9023 508.434 96.8711ZM536.199 115.293C535.156 115.293 534.238 115.121 533.449 114.777C532.668 114.426 532.016 113.961 531.496 113.387C530.984 112.805 530.594 112.137 530.324 111.387C530.063 110.629 529.934 109.84 529.934 109.027V99.1367H527.152V94.9023H529.934V88.4961H534.824V94.9023H539.262V99.1367H534.824V108.512C534.824 109.262 534.988 109.855 535.324 110.293C535.656 110.73 536.246 110.949 537.09 110.949H539.543V115.293H536.199ZM547.27 106.152C547.27 107.695 547.801 108.914 548.863 109.809C549.934 110.695 551.32 111.137 553.02 111.137C554.527 111.137 555.871 110.883 557.051 110.371C558.227 109.852 559.164 109.371 559.863 108.934L561.645 112.887C560.457 113.668 559.09 114.316 557.551 114.824C556.008 115.324 554.465 115.574 552.926 115.574C551.551 115.574 550.215 115.363 548.926 114.934C547.633 114.508 546.492 113.84 545.504 112.934C544.512 112.02 543.715 110.863 543.113 109.465C542.52 108.07 542.223 106.383 542.223 104.402C542.223 102.621 542.473 101.023 542.973 99.6055C543.48 98.1914 544.184 97.0039 545.082 96.043C545.977 95.0859 547.043 94.3555 548.285 93.8555C549.523 93.3555 550.883 93.1055 552.363 93.1055C555.508 93.1055 557.902 94.0976 559.551 96.0742C561.207 98.0547 562.035 100.941 562.035 104.73V106.152H547.27ZM552.363 97.4805C550.945 97.4805 549.773 97.8984 548.848 98.7305C547.918 99.5664 547.379 100.785 547.223 102.387H557.176C557.176 100.879 556.773 99.6836 555.973 98.8086C555.168 97.9258 553.965 97.4805 552.363 97.4805ZM570.941 96.8242C571.785 95.543 572.676 94.6523 573.613 94.1523C574.559 93.6445 575.789 93.3867 577.301 93.3867C577.926 93.3867 578.582 93.4609 579.27 93.6055C579.965 93.7422 580.582 93.918 581.113 94.1367L579.52 98.4805C578.926 98.2851 578.34 98.1367 577.77 98.043C577.207 97.9492 576.582 97.9336 575.895 97.9961C574.695 98.1211 573.711 98.5508 572.941 99.2773C572.168 99.9961 571.785 101.066 571.785 102.48V115.293H566.879V101.777C566.879 100.457 566.711 99.4648 566.379 98.8086C566.055 98.1445 565.418 97.5273 564.473 96.9648L566.973 93.0586C567.824 93.4648 568.59 93.9453 569.27 94.4961C569.945 95.0508 570.504 95.8242 570.941 96.8242Z" fill="#195890"/>
</svg>
