<svg width="40" height="30" viewBox="0 0 40 30" fill="none" xmlns="http://www.w3.org/2000/svg">
<path opacity="0.5" d="M28.3663 1.84198C29.0146 1.47797 29.4388 1.24277 29.7762 1.10837C30.0926 0.982365 30.2312 0.989365 30.3264 1.01317C30.4188 1.03837 30.5406 1.09717 30.7478 1.35897C30.9704 1.63758 31.2154 2.04498 31.5892 2.675L33.1348 5.27344C33.51 5.90346 33.7508 6.31226 33.8894 6.63707C34.0182 6.94227 34.0084 7.06828 33.9874 7.14948C33.9636 7.23208 33.9062 7.34828 33.6332 7.55129C33.3462 7.76689 32.9248 8.00489 32.2752 8.3689L26.7703 11.4518C26.1571 11.7962 25.7595 12.0174 25.4445 12.142C25.1505 12.2596 25.0301 12.2498 24.9545 12.2288C24.8775 12.2092 24.7683 12.1588 24.5723 11.911C24.3623 11.6478 24.1313 11.26 23.7743 10.6593L22.1222 7.88589C21.7554 7.26848 21.5202 6.86807 21.3844 6.55167C21.2584 6.25346 21.2682 6.13166 21.2892 6.05606C21.3102 5.98046 21.362 5.86985 21.6224 5.67525C21.8996 5.46525 22.307 5.23704 22.9384 4.88284L28.3663 1.84198ZM12.4775 12.4738L7.72437 15.1366C7.07475 15.5006 6.65335 15.7386 6.36634 15.9528C6.09334 16.1572 6.03593 16.2734 6.01353 16.3546C5.99113 16.4358 5.98133 16.5619 6.11014 16.8671C6.24734 17.1919 6.48954 17.6021 6.86475 18.2321C7.23996 18.8621 7.48356 19.2695 7.70476 19.5481C7.91337 19.8099 8.03517 19.8701 8.12757 19.8939C8.22277 19.9191 8.36138 19.9247 8.67918 19.7987C9.01519 19.6643 9.4394 19.4291 10.0876 19.0651L14.8155 16.4162C14.5943 16.1026 14.3661 15.7162 14.1085 15.2864L13.1817 13.7282C12.9017 13.2578 12.6553 12.842 12.4775 12.4738Z" fill="#808080"/>
<path d="M15.293 10.0291L20.1217 7.32568C20.2995 7.69389 20.5473 8.1097 20.8273 8.58011L22.5269 11.4362C22.7831 11.8674 23.0127 12.2524 23.2325 12.5674L21.0667 13.7798L26.9132 27.4861C26.9691 27.6183 26.9983 27.7604 26.9989 27.904C26.9996 28.0476 26.9718 28.1899 26.9171 28.3227C26.8624 28.4555 26.782 28.5762 26.6804 28.6777C26.5788 28.7792 26.458 28.8595 26.3252 28.9141C26.0556 29.0274 25.7523 29.0298 25.481 28.9207C25.2097 28.8117 24.9923 28.6 24.8762 28.3317L19.9999 16.9005L15.1236 28.3317C15.0074 28.5997 14.7903 28.8111 14.5193 28.9201C14.2484 29.0291 13.9453 29.0269 13.676 28.9141C13.5431 28.8595 13.4224 28.7792 13.3208 28.6777C13.2192 28.5762 13.1387 28.4555 13.084 28.3227C13.0293 28.1899 13.0015 28.0476 13.0022 27.904C13.0029 27.7604 13.032 27.6183 13.0879 27.4861L18.2624 15.3506C17.6996 15.6656 17.3258 15.8714 17.0262 15.9904C16.7322 16.108 16.6118 16.0982 16.5362 16.0772C16.4592 16.0576 16.35 16.0072 16.154 15.7594C15.9454 15.4962 15.713 15.1084 15.356 14.5078L14.4782 13.0322C14.11 12.4162 13.8748 12.0158 13.739 11.698C13.613 11.3998 13.6228 11.278 13.6438 11.2038C13.6648 11.1268 13.7166 11.0176 13.977 10.8215C14.2542 10.6129 14.663 10.3833 15.293 10.0305" fill="#808080"/>
</svg>
