<svg width="259" height="258" viewBox="0 0 259 258" fill="none" xmlns="http://www.w3.org/2000/svg">
<path d="M32.1506 77.156C3.74795 130.48 23.6906 196.636 76.6173 225.479C77.5813 202.141 94.0986 182.832 116.075 177.617C116.907 171.776 121.912 167.275 127.984 167.275C134.056 167.275 139.063 171.776 139.884 177.617C162.289 182.928 179.009 202.891 179.379 226.831C198.747 216.941 215.403 201.255 226.396 180.603C254.965 126.959 234.636 60.3186 180.993 31.756C164.521 22.9813 146.812 18.82 129.365 18.8187C90.004 18.8147 51.9386 39.988 32.1506 77.156ZM122.004 40.5466C122.004 39.2253 123.073 38.156 124.393 38.156C125.715 38.156 126.787 39.2253 126.787 40.5466C126.787 41.868 125.715 42.9386 124.393 42.9386C123.073 42.9386 122.004 41.868 122.004 40.5466ZM189.228 60.6333C187.464 60.356 185.997 59.0333 185.705 57.18L177.224 56.5453L185.773 55.9186C186.048 54.1546 187.384 52.6893 189.228 52.408L189.865 43.9066L190.497 52.4666C192.257 52.744 193.725 54.064 194.013 55.9186L202.499 56.5453L193.949 57.184C193.672 58.9493 192.347 60.408 190.492 60.696L189.865 69.192L189.228 60.6333ZM101.384 51.6306C101.384 49.9786 102.721 48.6453 104.371 48.6453C106.019 48.6453 107.361 49.9786 107.361 51.6306C107.361 53.284 106.019 54.6226 104.371 54.6226C102.721 54.6226 101.384 53.284 101.384 51.6306ZM72.512 65.992C71.4906 65.832 70.644 65.0666 70.4733 63.996L65.5773 63.6306L70.5133 63.2693C70.6693 62.2506 71.4426 61.404 72.512 61.2426L72.8746 56.3346L73.2413 61.276C74.2573 61.4373 75.104 62.1986 75.2706 63.2693L80.1693 63.6306L75.2333 63.9973C75.072 65.0173 74.3066 65.86 73.236 66.0266L72.8746 70.932L72.512 65.992ZM151.657 64.3813C151.657 63.5546 152.324 62.888 153.148 62.888C153.973 62.888 154.644 63.5546 154.644 64.3813C154.644 65.208 153.973 65.8773 153.148 65.8773C152.324 65.8773 151.657 65.208 151.657 64.3813ZM201.604 83.7253C201.403 82.3853 201.731 81.048 202.535 79.956C203.336 78.8666 204.516 78.1586 205.856 77.952C206.112 77.9093 206.365 77.8933 206.619 77.8933C209.076 77.8933 211.253 79.6946 211.636 82.2013C212.053 84.972 210.137 87.56 207.385 87.9773C207.128 88.0173 206.871 88.036 206.616 88.036C204.153 88.036 201.987 86.232 201.604 83.7253ZM178.276 84.24C178.276 82.7186 179.305 81.456 180.705 81.0546L182.2 80.9746C183.741 81.2586 184.925 82.612 184.925 84.24C184.925 85.3013 184.419 86.2413 183.639 86.8506L183.529 86.8533L183.487 86.9706C182.951 87.348 182.305 87.5666 181.607 87.5666C179.768 87.5666 178.276 86.0746 178.276 84.24ZM186.781 84.2506C186.781 83.4186 186.579 82.6306 186.228 81.9306L200.308 81.184C200.059 82.0733 199.985 83.0093 200.135 83.9506C200.185 84.3106 200.277 84.6573 200.384 84.996L186.563 85.732C186.701 85.2626 186.781 84.768 186.781 84.2506ZM41.2466 87.084C41.2306 86.9466 41.2213 86.8133 41.2213 86.676C41.2213 84.156 43.2746 82.1026 45.7973 82.1026C48.3173 82.1026 50.3706 84.156 50.3706 86.676C50.3706 86.836 50.3586 86.9906 50.3466 87.1426C50.1186 89.4453 48.1653 91.2573 45.7973 91.2573C43.4079 91.2573 41.4453 89.412 41.2466 87.084ZM78.592 87.2413C78.352 86.8026 78.2 86.3026 78.2 85.7586C78.2 85.2226 78.352 84.72 78.592 84.2746C78.6306 84.2066 78.6626 84.1333 78.7026 84.0653C79.2693 83.192 80.2426 82.6053 81.3586 82.6053C82.4666 82.6053 83.4439 83.192 84.0066 84.0653C84.0359 84.1146 84.0626 84.1653 84.088 84.2213C84.3493 84.676 84.5093 85.1973 84.5093 85.7586C84.5093 86.3213 84.3493 86.844 84.088 87.2946C83.548 88.2546 82.5306 88.9093 81.3586 88.9093C80.1573 88.9093 79.124 88.2293 78.592 87.2413ZM143.293 91.832C142.396 90.9466 141.843 89.712 141.843 88.36C141.843 87.636 141.997 86.952 142.273 86.3373C143.053 84.636 144.76 83.4493 146.745 83.4493C149.449 83.4493 151.645 85.6506 151.645 88.36C151.645 91.0586 149.449 93.2626 146.745 93.2626C145.399 93.2626 144.179 92.7133 143.293 91.832ZM116.132 89.1173C116.132 87.1333 117.749 85.5226 119.732 85.5226C121.713 85.5226 123.327 87.1333 123.327 89.1173C123.327 90.2413 122.792 91.2386 121.972 91.9013C121.448 92.3253 120.796 92.604 120.083 92.6733C119.965 92.684 119.852 92.712 119.732 92.712C117.749 92.712 116.132 91.0986 116.132 89.1173ZM124.905 89.1173C124.905 88.3413 124.735 87.616 124.429 86.96H140.453C140.352 87.4093 140.297 87.876 140.297 88.36C140.297 89.2066 140.464 90.024 140.768 90.768H124.635C124.811 90.2466 124.905 89.696 124.905 89.1173ZM179.104 98.3106C178.143 97.6 177.024 97.1826 175.864 97.068L178.265 88.2066C179.167 88.968 180.333 89.432 181.607 89.432C181.699 89.432 181.792 89.42 181.881 89.412L179.401 98.5546C179.304 98.472 179.204 98.3893 179.104 98.3106ZM79.436 136.677V91.5386V89.848C79.9986 90.1866 80.6546 90.392 81.3586 90.392C82.0466 90.392 82.6933 90.192 83.2479 89.8666V91.5533V138.112C82.2133 137.247 80.888 136.715 79.436 136.677ZM47.7013 92.5973C48.956 92.1946 50.04 91.3906 50.808 90.348L76.7946 137.185C75.5666 137.716 74.5466 138.644 73.8826 139.795L47.7013 92.5973ZM41.876 91.4946C42.9146 92.348 44.2399 92.864 45.6866 92.892V138.349C45.0373 138.119 44.3426 137.985 43.6106 137.985C43.0133 137.985 42.4253 138.08 41.876 138.24V91.4946ZM107.32 110.172L115.42 91.9933C116.163 93.0853 117.301 93.8866 118.632 94.176L110.747 111.844C109.82 110.971 108.635 110.373 107.32 110.172ZM170.197 104.353C169.997 103.012 170.323 101.675 171.131 100.589C171.939 99.4906 173.112 98.7866 174.455 98.576C174.628 98.5546 174.793 98.5533 174.961 98.5386C175.049 98.5346 175.141 98.52 175.223 98.52C176.296 98.52 177.34 98.8586 178.225 99.5133C179.316 100.315 180.027 101.496 180.229 102.831V102.836C180.435 104.176 180.103 105.511 179.3 106.604C179.245 106.673 179.185 106.74 179.136 106.808C178.343 107.784 177.229 108.419 175.971 108.611C175.717 108.648 175.465 108.667 175.217 108.667C172.757 108.667 170.576 106.863 170.197 104.353ZM180.789 107.056C181.487 105.932 181.821 104.644 181.768 103.328L205.552 113.603C204.855 114.72 204.503 116.001 204.56 117.321L180.789 107.056ZM101.423 116.531C101.423 113.991 103.361 111.899 105.837 111.648C106.001 111.631 106.163 111.628 106.331 111.628C108.227 111.628 109.867 112.709 110.683 114.287C111.029 114.964 111.233 115.72 111.233 116.531C111.233 117.049 111.145 117.552 110.995 118.028C110.399 119.901 108.7 121.28 106.669 121.419C106.555 121.427 106.448 121.439 106.331 121.439C103.619 121.439 101.423 119.235 101.423 116.531ZM210.401 122.095C209.581 121.979 208.791 121.668 208.103 121.16C207.009 120.36 206.293 119.177 206.099 117.84C205.896 116.5 206.221 115.16 207.028 114.069C207.088 113.988 207.155 113.916 207.215 113.844C208.009 112.884 209.108 112.253 210.347 112.064C210.612 112.025 210.857 112.008 211.112 112.008C213.573 112.008 215.736 113.815 216.128 116.321C216.327 117.663 215.992 118.996 215.192 120.089C214.392 121.175 213.209 121.891 211.869 122.091C211.617 122.128 211.365 122.147 211.115 122.147C210.876 122.147 210.637 122.129 210.401 122.095ZM108.593 122.559C109.82 122.095 110.863 121.275 111.605 120.223L121.757 133.42C120.5 133.824 119.453 134.705 118.817 135.845L108.593 122.559ZM200.931 136.105L206.232 121.472C206.529 121.797 206.857 122.091 207.215 122.363C207.935 122.885 208.735 123.252 209.567 123.461L204.348 137.855C203.5 136.884 202.291 136.229 200.931 136.105ZM143.319 141.032C143.013 140.416 142.843 139.727 142.843 139C142.843 137.615 143.464 136.368 144.441 135.532C145.24 134.837 146.277 134.423 147.415 134.423C149.937 134.423 151.988 136.475 151.988 139C151.988 141.525 149.937 143.575 147.415 143.575C145.623 143.575 144.072 142.535 143.319 141.032ZM173.719 144.024C172.624 143.223 171.911 142.041 171.709 140.701C171.512 139.367 171.837 138.033 172.644 136.936C173.447 135.848 174.632 135.14 175.965 134.928C176.228 134.889 176.489 134.871 176.741 134.871C177.817 134.871 178.853 135.211 179.736 135.86C180.296 136.276 180.749 136.787 181.092 137.365C181.42 137.916 181.637 138.528 181.743 139.183C181.92 140.384 181.664 141.551 181.085 142.52C180.336 143.788 179.053 144.717 177.488 144.96C177.231 145 176.975 145.019 176.719 145.019C175.644 145.019 174.601 144.677 173.719 144.024ZM122.532 141.555C122.048 141.429 121.619 141.204 121.245 140.893C120.843 140.568 120.521 140.16 120.311 139.685C120.131 139.275 120.028 138.828 120.028 138.349C120.028 136.512 121.524 135.021 123.36 135.021C123.708 135.021 124.031 135.088 124.347 135.188C124.672 135.291 124.969 135.427 125.244 135.615C126.109 136.215 126.675 137.212 126.675 138.349C126.675 139.895 125.607 141.189 124.169 141.555C123.913 141.623 123.64 141.669 123.36 141.669C123.069 141.669 122.797 141.623 122.532 141.555ZM129.141 138.349C129.141 137.732 129.029 137.144 128.853 136.596H141.151C140.869 137.336 140.713 138.147 140.713 139C140.713 139.483 140.765 139.955 140.86 140.405H128.747C128.995 139.775 129.141 139.08 129.141 138.349ZM196.863 141.264C196.863 140.027 197.495 138.937 198.447 138.291L199.344 137.865C199.697 137.755 200.067 137.673 200.457 137.673C202.429 137.673 204.039 139.281 204.039 141.264C204.039 143.235 202.429 144.847 200.457 144.847C198.48 144.847 196.863 143.235 196.863 141.264ZM182.951 141.989C183.264 141.047 183.372 140.013 183.216 138.959C183.172 138.693 183.108 138.431 183.039 138.172L195.697 139.203C195.425 139.836 195.271 140.531 195.271 141.259C195.271 141.879 195.384 142.465 195.587 143.016L182.951 141.989ZM74.6946 142.884C74.6946 142.819 74.7026 142.757 74.7026 142.693C74.812 140.263 76.8146 138.313 79.276 138.313C81.732 138.313 83.7319 140.263 83.8359 142.693C83.8359 142.757 83.8466 142.819 83.8466 142.884C83.8466 145.413 81.7946 147.463 79.276 147.463C76.7466 147.463 74.6946 145.413 74.6946 142.884ZM38.664 144.648C38.664 142.921 39.5519 141.405 40.9026 140.52C41.6786 140.004 42.6093 139.703 43.6173 139.703C44.8466 139.703 45.9746 140.16 46.8413 140.913C47.8879 141.819 48.5639 143.157 48.5639 144.648C48.5639 147.376 46.3386 149.592 43.6173 149.592C40.8866 149.592 38.664 147.376 38.664 144.648ZM213.289 164.207C212.275 164.048 211.431 163.288 211.265 162.223L206.389 161.859L211.297 161.499C211.46 160.485 212.231 159.643 213.289 159.48L213.652 154.597L214.02 159.516C215.028 159.672 215.871 160.433 216.037 161.499L220.915 161.859L216.001 162.225C215.84 163.24 215.079 164.077 214.013 164.243L213.652 169.125L213.289 164.207ZM57.3786 174.907C55.6119 174.629 54.1426 173.307 53.8586 171.453L45.3719 170.82L53.9186 170.195C54.1946 168.429 55.5319 166.963 57.3786 166.681L58.0146 158.181L58.6493 166.741C60.4039 167.016 61.8693 168.34 62.1573 170.195L70.6493 170.82L62.0973 171.456C61.8159 173.224 60.4946 174.684 58.6386 174.971L58.0146 183.468L57.3786 174.907ZM174.821 165.061C174.821 164.235 175.495 163.569 176.319 163.569C177.145 163.569 177.813 164.235 177.813 165.061C177.813 165.888 177.145 166.56 176.319 166.56C175.495 166.56 174.821 165.888 174.821 165.061ZM196.172 189.688C194.408 189.411 192.937 188.089 192.648 186.235L184.167 185.601L192.713 184.975C192.992 183.209 194.328 181.745 196.172 181.463L196.811 172.963L197.441 181.524C199.2 181.8 200.665 183.123 200.953 184.975L209.443 185.601L200.891 186.239C200.615 188.005 199.291 189.465 197.432 189.751L196.811 198.248L196.172 189.688ZM75.9253 183.595C75.9253 182.771 76.5986 182.101 77.424 182.101C78.2493 182.101 78.9173 182.771 78.9173 183.595C78.9173 184.421 78.2493 185.089 77.424 185.089C76.5986 185.089 75.9253 184.421 75.9253 183.595Z" fill="url(#paint0_linear_369_38)"/>
<path d="M0.529297 128.88C0.529297 199.868 58.2826 257.624 129.273 257.624C200.26 257.624 258.019 199.868 258.019 128.88C258.019 57.8893 200.26 0.134636 129.273 0.134636C58.2826 0.134636 0.529297 57.8893 0.529297 128.88ZM3.75597 128.88C3.75597 59.672 60.0653 3.36397 129.273 3.36397C198.488 3.36397 254.787 59.672 254.787 128.88C254.787 198.089 198.488 254.396 129.273 254.396C60.0653 254.396 3.75597 198.089 3.75597 128.88Z" fill="url(#paint1_linear_369_38)"/>
<path d="M114.118 187.524C112.762 187.524 111.665 188.621 111.665 189.972C111.665 191.329 112.762 192.425 114.118 192.425C115.468 192.425 116.568 191.329 116.568 189.972C116.568 188.621 115.468 187.524 114.118 187.524Z" fill="url(#paint2_linear_369_38)"/>
<path d="M143.073 187.524C141.713 187.524 140.62 188.621 140.62 189.972C140.62 191.329 141.713 192.425 143.073 192.425C144.422 192.425 145.52 191.329 145.52 189.972C145.52 188.621 144.422 187.524 143.073 187.524Z" fill="url(#paint3_linear_369_38)"/>
<path d="M124.121 39.4826C123.481 39.5773 123.051 40.1733 123.145 40.804C123.243 41.436 123.833 41.872 124.468 41.7733C125.108 41.684 125.54 41.0893 125.445 40.4546C125.36 39.8826 124.864 39.4693 124.3 39.4693C124.241 39.4693 124.181 39.4733 124.121 39.4826Z" fill="url(#paint4_linear_369_38)"/>
<path d="M152.963 63.2253C152.324 63.324 151.891 63.912 151.988 64.548C152.083 65.1826 152.675 65.62 153.311 65.524C153.948 65.428 154.388 64.836 154.285 64.1986C154.2 63.6253 153.704 63.212 153.139 63.212C153.081 63.212 153.021 63.216 152.963 63.2253Z" fill="url(#paint5_linear_369_38)"/>
<defs>
<linearGradient id="paint0_linear_369_38" x1="19.2157" y1="122.825" x2="239.333" y2="122.825" gradientUnits="userSpaceOnUse">
<stop stop-color="#2889C3"/>
<stop offset="0.521505" stop-color="#0061A1"/>
<stop offset="1" stop-color="#172575"/>
</linearGradient>
<linearGradient id="paint1_linear_369_38" x1="0.528609" y1="128.88" x2="258.018" y2="128.88" gradientUnits="userSpaceOnUse">
<stop stop-color="#2889C3"/>
<stop offset="0.521505" stop-color="#0061A1"/>
<stop offset="1" stop-color="#172575"/>
</linearGradient>
<linearGradient id="paint2_linear_369_38" x1="111.665" y1="189.975" x2="116.568" y2="189.975" gradientUnits="userSpaceOnUse">
<stop stop-color="#2889C3"/>
<stop offset="0.521505" stop-color="#0061A1"/>
<stop offset="1" stop-color="#172575"/>
</linearGradient>
<linearGradient id="paint3_linear_369_38" x1="140.62" y1="189.975" x2="145.52" y2="189.975" gradientUnits="userSpaceOnUse">
<stop stop-color="#2889C3"/>
<stop offset="0.521505" stop-color="#0061A1"/>
<stop offset="1" stop-color="#172575"/>
</linearGradient>
<linearGradient id="paint4_linear_369_38" x1="123.132" y1="40.6283" x2="125.458" y2="40.6283" gradientUnits="userSpaceOnUse">
<stop stop-color="#2889C3"/>
<stop offset="0.521505" stop-color="#0061A1"/>
<stop offset="1" stop-color="#172575"/>
</linearGradient>
<linearGradient id="paint5_linear_369_38" x1="151.974" y1="64.3746" x2="154.3" y2="64.3746" gradientUnits="userSpaceOnUse">
<stop stop-color="#2889C3"/>
<stop offset="0.521505" stop-color="#0061A1"/>
<stop offset="1" stop-color="#172575"/>
</linearGradient>
</defs>
</svg>
