<svg width="344" height="122" viewBox="0 0 344 122" fill="none" xmlns="http://www.w3.org/2000/svg">
<mask id="path-1-outside-1_619_8" maskUnits="userSpaceOnUse" x="0" y="0" width="344" height="122" fill="black">
<rect fill="white" width="344" height="122"/>
<path fill-rule="evenodd" clip-rule="evenodd" d="M45.5 9C49.6421 9 53 5.64214 53 1.5C53 1.33199 52.9945 1.16526 52.9836 1H284.016C284.006 1.16526 284 1.33199 284 1.5C284 4.77778 286.103 7.56444 289.033 8.58473L288.98 8.73031L292.739 10.0984L293.081 9.1587L292.473 8.93749C296.155 8.46055 299 5.31248 299 1.5C299 1.33199 298.994 1.16526 298.984 1H328C336.284 1 343 7.71573 343 16V106C343 114.284 336.284 121 328 121H298.984C298.726 117.091 295.474 114 291.5 114C287.526 114 284.274 117.091 284.016 121H52.9836C52.7263 117.091 49.4741 114 45.5 114C41.5259 114 38.2737 117.091 38.0164 121H16C7.71573 121 1 114.284 1 106V16C1 7.71573 7.71573 1 16 1H38.0164C38.0055 1.16526 38 1.33199 38 1.5C38 5.64214 41.3579 9 45.5 9ZM293.081 14.7742L289.322 13.4062L288.98 14.3459L292.739 15.7139L293.081 14.7742ZM289.322 16.2139L293.081 17.582L292.739 18.5217L288.98 17.1536L289.322 16.2139ZM293.081 20.3898L289.322 19.0217L288.98 19.9614L292.739 21.3295L293.081 20.3898ZM289.322 21.8295L293.081 23.1975L292.739 24.1372L288.98 22.7692L289.322 21.8295ZM289.322 10.5984L293.081 11.9665L292.739 12.9062L288.98 11.5381L289.322 10.5984ZM293.081 26.0053L289.322 24.6372L288.98 25.5769L292.739 26.945L293.081 26.0053ZM289.322 27.445L293.081 28.8131L292.739 29.7528L288.98 28.3847L289.322 27.445ZM293.081 31.6209L289.322 30.2528L288.98 31.1925L292.739 32.5606L293.081 31.6209ZM289.322 33.0605L293.081 34.4286L292.739 35.3683L288.98 34.0002L289.322 33.0605ZM293.081 37.2364L289.322 35.8683L288.98 36.808L292.739 38.1761L293.081 37.2364ZM289.322 38.6761L293.081 40.0442L292.739 40.9839L288.98 39.6158L289.322 38.6761ZM293.081 42.8519L289.322 41.4839L288.98 42.4235L292.739 43.7916L293.081 42.8519ZM289.322 44.2916L293.081 45.6597L292.739 46.5994L288.98 45.2313L289.322 44.2916ZM293.081 48.4675L289.322 47.0994L288.98 48.0391L292.739 49.4072L293.081 48.4675ZM289.322 49.9072L293.081 51.2752L292.739 52.2149L288.98 50.8469L289.322 49.9072ZM293.081 54.083L289.322 52.7149L288.98 53.6546L292.739 55.0227L293.081 54.083ZM289.322 55.5227L293.081 56.8908L292.739 57.8305L288.98 56.4624L289.322 55.5227ZM293.081 59.6986L289.322 58.3305L288.98 59.2702L292.739 60.6382L293.081 59.6986ZM289.322 61.1382L293.081 62.5063L292.739 63.446L288.98 62.0779L289.322 61.1382ZM293.081 65.3141L289.322 63.946L288.98 64.8857L292.739 66.2538L293.081 65.3141ZM289.322 66.7538L293.081 68.1219L292.739 69.0616L288.98 67.6935L289.322 66.7538ZM293.081 70.9296L289.322 69.5616L288.98 70.5012L292.739 71.8693L293.081 70.9296ZM289.322 72.3693L293.081 73.7374L292.739 74.6771L288.98 73.309L289.322 72.3693ZM293.081 76.5452L289.322 75.1771L288.98 76.1168L292.739 77.4849L293.081 76.5452ZM289.322 77.9849L293.081 79.3529L292.739 80.2926L288.98 78.9246L289.322 77.9849ZM293.081 82.1607L289.322 80.7926L288.98 81.7323L292.739 83.1004L293.081 82.1607ZM289.322 83.6004L293.081 84.9685L292.739 85.9082L288.98 84.5401L289.322 83.6004ZM293.081 87.7763L289.322 86.4082L288.98 87.3479L292.739 88.7159L293.081 87.7763ZM289.322 89.2159L293.081 90.584L292.739 91.5237L288.98 90.1556L289.322 89.2159ZM293.081 93.3918L289.322 92.0237L288.98 92.9634L292.739 94.3315L293.081 93.3918ZM289.322 94.8315L293.081 96.1996L292.739 97.1393L288.98 95.7712L289.322 94.8315ZM293.081 99.0073L289.322 97.6393L288.98 98.5789L292.739 99.947L293.081 99.0073ZM289.322 100.447L293.081 101.815L292.739 102.755L288.98 101.387L289.322 100.447ZM293.081 104.623L289.322 103.255L288.98 104.194L292.739 105.563L293.081 104.623ZM289.322 106.063L293.081 107.431L292.739 108.37L288.98 107.002L289.322 106.063ZM293.081 110.238L289.322 108.87L288.98 109.81L292.739 111.178L293.081 110.238ZM289.322 111.678L293.081 113.046L292.739 113.986L288.98 112.618L289.322 111.678Z"/>
</mask>
<path d="M52.9836 1V0.5H52.4496L52.4847 1.03283L52.9836 1ZM284.016 1L284.515 1.0328L284.55 0.5H284.016V1ZM289.033 8.58473L289.503 8.75571L289.676 8.27927L289.197 8.11254L289.033 8.58473ZM288.98 8.73031L288.51 8.55933L288.339 9.02916L288.809 9.20016L288.98 8.73031ZM292.739 10.0984L292.568 10.5682L293.037 10.7393L293.208 10.2694L292.739 10.0984ZM293.081 9.1587L293.55 9.3297L293.721 8.85986L293.252 8.68885L293.081 9.1587ZM292.473 8.93749L292.409 8.44163L292.302 9.40734L292.473 8.93749ZM298.984 1V0.5H298.45L298.485 1.0328L298.984 1ZM298.984 121L298.485 121.033L298.515 121.5H298.984V121ZM284.016 121V121.5H284.485L284.515 121.033L284.016 121ZM52.9836 121L52.4847 121.033L52.5154 121.5H52.9836V121ZM38.0164 121V121.5H38.4846L38.5153 121.033L38.0164 121ZM38.0164 1L38.5153 1.03283L38.5504 0.5H38.0164V1ZM289.322 13.4062L289.493 12.9363L289.023 12.7653L288.852 13.2352L289.322 13.4062ZM293.081 14.7742L293.55 14.9452L293.721 14.4754L293.252 14.3044L293.081 14.7742ZM288.98 14.3459L288.51 14.1748L288.339 14.6447L288.809 14.8157L288.98 14.3459ZM292.739 15.7139L292.568 16.1838L293.037 16.3548L293.208 15.8849L292.739 15.7139ZM293.081 17.582L293.55 17.753L293.721 17.2832L293.252 17.1122L293.081 17.582ZM289.322 16.2139L289.493 15.7441L289.023 15.5731L288.852 16.0429L289.322 16.2139ZM292.739 18.5217L292.568 18.9915L293.037 19.1626L293.208 18.6927L292.739 18.5217ZM288.98 17.1536L288.51 16.9826L288.339 17.4525L288.809 17.6235L288.98 17.1536ZM289.322 19.0217L289.493 18.5519L289.023 18.3808L288.852 18.8507L289.322 19.0217ZM293.081 20.3898L293.55 20.5608L293.721 20.0909L293.252 19.9199L293.081 20.3898ZM288.98 19.9614L288.51 19.7904L288.339 20.2602L288.809 20.4312L288.98 19.9614ZM292.739 21.3295L292.568 21.7993L293.037 21.9703L293.208 21.5005L292.739 21.3295ZM293.081 23.1975L293.55 23.3686L293.721 22.8987L293.252 22.7277L293.081 23.1975ZM289.322 21.8295L289.493 21.3596L289.023 21.1886L288.852 21.6585L289.322 21.8295ZM292.739 24.1372L292.568 24.6071L293.037 24.7781L293.208 24.3082L292.739 24.1372ZM288.98 22.7692L288.51 22.5982L288.339 23.068L288.809 23.239L288.98 22.7692ZM293.081 11.9665L293.55 12.1375L293.721 11.6676L293.252 11.4966L293.081 11.9665ZM289.322 10.5984L289.493 10.1285L289.023 9.95753L288.852 10.4274L289.322 10.5984ZM292.739 12.9062L292.568 13.376L293.037 13.547L293.208 13.0772L292.739 12.9062ZM288.98 11.5381L288.51 11.3671L288.339 11.8369L288.809 12.0079L288.98 11.5381ZM289.322 24.6372L289.493 24.1674L289.023 23.9964L288.852 24.4662L289.322 24.6372ZM293.081 26.0053L293.55 26.1763L293.721 25.7065L293.252 25.5355L293.081 26.0053ZM288.98 25.5769L288.51 25.4059L288.339 25.8758L288.809 26.0468L288.98 25.5769ZM292.739 26.945L292.568 27.4149L293.037 27.5859L293.208 27.116L292.739 26.945ZM293.081 28.8131L293.55 28.9841L293.721 28.5143L293.252 28.3432L293.081 28.8131ZM289.322 27.445L289.493 26.9752L289.023 26.8041L288.852 27.274L289.322 27.445ZM292.739 29.7528L292.568 30.2226L293.037 30.3936L293.208 29.9238L292.739 29.7528ZM288.98 28.3847L288.51 28.2137L288.339 28.6835L288.809 28.8545L288.98 28.3847ZM289.322 30.2528L289.493 29.7829L289.023 29.6119L288.852 30.0818L289.322 30.2528ZM293.081 31.6209L293.55 31.7919L293.721 31.322L293.252 31.151L293.081 31.6209ZM288.98 31.1925L288.51 31.0215L288.339 31.4913L288.809 31.6623L288.98 31.1925ZM292.739 32.5606L292.568 33.0304L293.037 33.2014L293.208 32.7316L292.739 32.5606ZM293.081 34.4286L293.55 34.5996L293.721 34.1298L293.252 33.9588L293.081 34.4286ZM289.322 33.0605L289.493 32.5907L289.023 32.4197L288.852 32.8895L289.322 33.0605ZM292.739 35.3683L292.568 35.8382L293.037 36.0092L293.208 35.5393L292.739 35.3683ZM288.98 34.0002L288.51 33.8292L288.339 34.2991L288.809 34.4701L288.98 34.0002ZM289.322 35.8683L289.493 35.3985L289.023 35.2275L288.852 35.6973L289.322 35.8683ZM293.081 37.2364L293.55 37.4074L293.721 36.9376L293.252 36.7666L293.081 37.2364ZM288.98 36.808L288.51 36.637L288.339 37.1068L288.809 37.2779L288.98 36.808ZM292.739 38.1761L292.568 38.6459L293.037 38.8169L293.208 38.3471L292.739 38.1761ZM293.081 40.0442L293.55 40.2152L293.721 39.7453L293.252 39.5743L293.081 40.0442ZM289.322 38.6761L289.493 38.2062L289.023 38.0352L288.852 38.5051L289.322 38.6761ZM292.739 40.9839L292.568 41.4537L293.037 41.6247L293.208 41.1549L292.739 40.9839ZM288.98 39.6158L288.51 39.4448L288.339 39.9146L288.809 40.0856L288.98 39.6158ZM289.322 41.4839L289.493 41.014L289.023 40.843L288.852 41.3129L289.322 41.4839ZM293.081 42.8519L293.55 43.0229L293.721 42.5531L293.252 42.3821L293.081 42.8519ZM288.98 42.4235L288.51 42.2525L288.339 42.7224L288.809 42.8934L288.98 42.4235ZM292.739 43.7916L292.568 44.2615L293.037 44.4325L293.208 43.9626L292.739 43.7916ZM293.081 45.6597L293.55 45.8307L293.721 45.3609L293.252 45.1899L293.081 45.6597ZM289.322 44.2916L289.493 43.8218L289.023 43.6508L288.852 44.1206L289.322 44.2916ZM292.739 46.5994L292.568 47.0692L293.037 47.2403L293.208 46.7704L292.739 46.5994ZM288.98 45.2313L288.51 45.0603L288.339 45.5302L288.809 45.7012L288.98 45.2313ZM289.322 47.0994L289.493 46.6295L289.023 46.4585L288.852 46.9284L289.322 47.0994ZM293.081 48.4675L293.55 48.6385L293.721 48.1686L293.252 47.9976L293.081 48.4675ZM288.98 48.0391L288.51 47.8681L288.339 48.3379L288.809 48.5089L288.98 48.0391ZM292.739 49.4072L292.568 49.877L293.037 50.048L293.208 49.5782L292.739 49.4072ZM293.081 51.2752L293.55 51.4463L293.721 50.9764L293.252 50.8054L293.081 51.2752ZM289.322 49.9072L289.493 49.4373L289.023 49.2663L288.852 49.7362L289.322 49.9072ZM292.739 52.2149L292.568 52.6848L293.037 52.8558L293.208 52.3859L292.739 52.2149ZM288.98 50.8469L288.51 50.6759L288.339 51.1457L288.809 51.3167L288.98 50.8469ZM289.322 52.7149L289.493 52.2451L289.023 52.0741L288.852 52.5439L289.322 52.7149ZM293.081 54.083L293.55 54.254L293.721 53.7842L293.252 53.6132L293.081 54.083ZM288.98 53.6546L288.51 53.4836L288.339 53.9535L288.809 54.1245L288.98 53.6546ZM292.739 55.0227L292.568 55.4926L293.037 55.6636L293.208 55.1937L292.739 55.0227ZM293.081 56.8908L293.55 57.0618L293.721 56.5919L293.252 56.4209L293.081 56.8908ZM289.322 55.5227L289.493 55.0529L289.023 54.8818L288.852 55.3517L289.322 55.5227ZM292.739 57.8305L292.568 58.3003L293.037 58.4713L293.208 58.0015L292.739 57.8305ZM288.98 56.4624L288.51 56.2914L288.339 56.7612L288.809 56.9322L288.98 56.4624ZM289.322 58.3305L289.493 57.8606L289.023 57.6896L288.852 58.1595L289.322 58.3305ZM293.081 59.6986L293.55 59.8696L293.721 59.3997L293.252 59.2287L293.081 59.6986ZM288.98 59.2702L288.51 59.0992L288.339 59.569L288.809 59.74L288.98 59.2702ZM292.739 60.6382L292.568 61.1081L293.037 61.2791L293.208 60.8093L292.739 60.6382ZM293.081 62.5063L293.55 62.6773L293.721 62.2075L293.252 62.0365L293.081 62.5063ZM289.322 61.1382L289.493 60.6684L289.023 60.4974L288.852 60.9672L289.322 61.1382ZM292.739 63.446L292.568 63.9159L293.037 64.0869L293.208 63.617L292.739 63.446ZM288.98 62.0779L288.51 61.9069L288.339 62.3768L288.809 62.5478L288.98 62.0779ZM289.322 63.946L289.493 63.4762L289.023 63.3052L288.852 63.775L289.322 63.946ZM293.081 65.3141L293.55 65.4851L293.721 65.0153L293.252 64.8442L293.081 65.3141ZM288.98 64.8857L288.51 64.7147L288.339 65.1845L288.809 65.3556L288.98 64.8857ZM292.739 66.2538L292.568 66.7236L293.037 66.8946L293.208 66.4248L292.739 66.2538ZM293.081 68.1219L293.55 68.2929L293.721 67.823L293.252 67.652L293.081 68.1219ZM289.322 66.7538L289.493 66.2839L289.023 66.1129L288.852 66.5828L289.322 66.7538ZM292.739 69.0616L292.568 69.5314L293.037 69.7024L293.208 69.2326L292.739 69.0616ZM288.98 67.6935L288.51 67.5225L288.339 67.9923L288.809 68.1633L288.98 67.6935ZM289.322 69.5616L289.493 69.0917L289.023 68.9207L288.852 69.3905L289.322 69.5616ZM293.081 70.9296L293.55 71.1006L293.721 70.6308L293.252 70.4598L293.081 70.9296ZM288.98 70.5012L288.51 70.3302L288.339 70.8001L288.809 70.9711L288.98 70.5012ZM292.739 71.8693L292.568 72.3392L293.037 72.5102L293.208 72.0403L292.739 71.8693ZM293.081 73.7374L293.55 73.9084L293.721 73.4386L293.252 73.2676L293.081 73.7374ZM289.322 72.3693L289.493 71.8995L289.023 71.7285L288.852 72.1983L289.322 72.3693ZM292.739 74.6771L292.568 75.1469L293.037 75.318L293.208 74.8481L292.739 74.6771ZM288.98 73.309L288.51 73.138L288.339 73.6079L288.809 73.7789L288.98 73.309ZM289.322 75.1771L289.493 74.7072L289.023 74.5362L288.852 75.0061L289.322 75.1771ZM293.081 76.5452L293.55 76.7162L293.721 76.2463L293.252 76.0753L293.081 76.5452ZM288.98 76.1168L288.51 75.9458L288.339 76.4156L288.809 76.5866L288.98 76.1168ZM292.739 77.4849L292.568 77.9547L293.037 78.1257L293.208 77.6559L292.739 77.4849ZM293.081 79.3529L293.55 79.5239L293.721 79.0541L293.252 78.8831L293.081 79.3529ZM289.322 77.9849L289.493 77.515L289.023 77.344L288.852 77.8139L289.322 77.9849ZM292.739 80.2926L292.568 80.7625L293.037 80.9335L293.208 80.4636L292.739 80.2926ZM288.98 78.9246L288.51 78.7535L288.339 79.2234L288.809 79.3944L288.98 78.9246ZM289.322 80.7926L289.493 80.3228L289.023 80.1518L288.852 80.6216L289.322 80.7926ZM293.081 82.1607L293.55 82.3317L293.721 81.8619L293.252 81.6909L293.081 82.1607ZM288.98 81.7323L288.51 81.5613L288.339 82.0312L288.809 82.2022L288.98 81.7323ZM292.739 83.1004L292.568 83.5702L293.037 83.7413L293.208 83.2714L292.739 83.1004ZM293.081 84.9685L293.55 85.1395L293.721 84.6696L293.252 84.4986L293.081 84.9685ZM289.322 83.6004L289.493 83.1306L289.023 82.9595L288.852 83.4294L289.322 83.6004ZM292.739 85.9082L292.568 86.378L293.037 86.549L293.208 86.0792L292.739 85.9082ZM288.98 84.5401L288.51 84.3691L288.339 84.8389L288.809 85.0099L288.98 84.5401ZM289.322 86.4082L289.493 85.9383L289.023 85.7673L288.852 86.2372L289.322 86.4082ZM293.081 87.7763L293.55 87.9473L293.721 87.4774L293.252 87.3064L293.081 87.7763ZM288.98 87.3479L288.51 87.1769L288.339 87.6467L288.809 87.8177L288.98 87.3479ZM292.739 88.7159L292.568 89.1858L293.037 89.3568L293.208 88.8869L292.739 88.7159ZM293.081 90.584L293.55 90.755L293.721 90.2852L293.252 90.1142L293.081 90.584ZM289.322 89.2159L289.493 88.7461L289.023 88.5751L288.852 89.0449L289.322 89.2159ZM292.739 91.5237L292.568 91.9936L293.037 92.1646L293.208 91.6947L292.739 91.5237ZM288.98 90.1556L288.51 89.9846L288.339 90.4545L288.809 90.6255L288.98 90.1556ZM289.322 92.0237L289.493 91.5539L289.023 91.3829L288.852 91.8527L289.322 92.0237ZM293.081 93.3918L293.55 93.5628L293.721 93.093L293.252 92.9219L293.081 93.3918ZM288.98 92.9634L288.51 92.7924L288.339 93.2622L288.809 93.4332L288.98 92.9634ZM292.739 94.3315L292.568 94.8013L293.037 94.9723L293.208 94.5025L292.739 94.3315ZM293.081 96.1996L293.55 96.3706L293.721 95.9007L293.252 95.7297L293.081 96.1996ZM289.322 94.8315L289.493 94.3616L289.023 94.1906L288.852 94.6605L289.322 94.8315ZM292.739 97.1393L292.568 97.6091L293.037 97.7801L293.208 97.3103L292.739 97.1393ZM288.98 95.7712L288.51 95.6002L288.339 96.07L288.809 96.241L288.98 95.7712ZM289.322 97.6393L289.493 97.1694L289.023 96.9984L288.852 97.4682L289.322 97.6393ZM293.081 99.0073L293.55 99.1783L293.721 98.7085L293.252 98.5375L293.081 99.0073ZM288.98 98.5789L288.51 98.4079L288.339 98.8778L288.809 99.0488L288.98 98.5789ZM292.739 99.947L292.568 100.417L293.037 100.588L293.208 100.118L292.739 99.947ZM293.081 101.815L293.55 101.986L293.721 101.516L293.252 101.345L293.081 101.815ZM289.322 100.447L289.493 99.9772L289.023 99.8062L288.852 100.276L289.322 100.447ZM292.739 102.755L292.568 103.225L293.037 103.396L293.208 102.926L292.739 102.755ZM288.98 101.387L288.51 101.216L288.339 101.686L288.809 101.857L288.98 101.387ZM289.322 103.255L289.493 102.785L289.023 102.614L288.852 103.084L289.322 103.255ZM293.081 104.623L293.55 104.794L293.721 104.324L293.252 104.153L293.081 104.623ZM288.98 104.194L288.51 104.023L288.339 104.493L288.809 104.664L288.98 104.194ZM292.739 105.563L292.568 106.032L293.037 106.203L293.208 105.734L292.739 105.563ZM293.081 107.431L293.55 107.602L293.721 107.132L293.252 106.961L293.081 107.431ZM289.322 106.063L289.493 105.593L289.023 105.422L288.852 105.892L289.322 106.063ZM292.739 108.37L292.568 108.84L293.037 109.011L293.208 108.541L292.739 108.37ZM288.98 107.002L288.51 106.831L288.339 107.301L288.809 107.472L288.98 107.002ZM289.322 108.87L289.493 108.4L289.023 108.229L288.852 108.699L289.322 108.87ZM293.081 110.238L293.55 110.409L293.721 109.94L293.252 109.769L293.081 110.238ZM288.98 109.81L288.51 109.639L288.339 110.109L288.809 110.28L288.98 109.81ZM292.739 111.178L292.568 111.648L293.037 111.819L293.208 111.349L292.739 111.178ZM293.081 113.046L293.55 113.217L293.721 112.747L293.252 112.576L293.081 113.046ZM289.322 111.678L289.493 111.208L289.023 111.037L288.852 111.507L289.322 111.678ZM292.739 113.986L292.568 114.456L293.037 114.627L293.208 114.157L292.739 113.986ZM288.98 112.618L288.51 112.447L288.339 112.917L288.809 113.088L288.98 112.618ZM52.5 1.5C52.5 5.36599 49.366 8.5 45.5 8.5V9.5C49.9183 9.5 53.5 5.91828 53.5 1.5H52.5ZM52.4847 1.03283C52.4948 1.18718 52.5 1.34296 52.5 1.5H53.5C53.5 1.32102 53.4941 1.14334 53.4825 0.967167L52.4847 1.03283ZM52.9836 1.5H284.016V0.5H52.9836V1.5ZM283.517 0.967201C283.506 1.14336 283.5 1.32102 283.5 1.5H284.5C284.5 1.34295 284.505 1.18716 284.515 1.0328L283.517 0.967201ZM283.5 1.5C283.5 4.99707 285.744 7.96884 288.868 9.05692L289.197 8.11254C286.462 7.16005 284.5 4.55848 284.5 1.5H283.5ZM288.563 8.41374L288.51 8.55933L289.45 8.9013L289.503 8.75571L288.563 8.41374ZM288.809 9.20016L292.568 10.5682L292.91 9.62855L289.151 8.26047L288.809 9.20016ZM293.208 10.2694L293.55 9.3297L292.611 8.98769L292.269 9.92739L293.208 10.2694ZM293.252 8.68885L292.644 8.46765L292.302 9.40734L292.91 9.62854L293.252 8.68885ZM292.537 9.43335C296.466 8.92455 299.5 5.56703 299.5 1.5H298.5C298.5 5.05792 295.845 7.99656 292.409 8.44163L292.537 9.43335ZM299.5 1.5C299.5 1.32102 299.494 1.14336 299.483 0.967201L298.485 1.0328C298.495 1.18716 298.5 1.34295 298.5 1.5H299.5ZM298.984 1.5H328V0.5H298.984V1.5ZM328 1.5C336.008 1.5 342.5 7.99187 342.5 16H343.5C343.5 7.43959 336.56 0.5 328 0.5V1.5ZM342.5 16V106H343.5V16H342.5ZM342.5 106C342.5 114.008 336.008 120.5 328 120.5V121.5C336.56 121.5 343.5 114.56 343.5 106H342.5ZM328 120.5H298.984V121.5H328V120.5ZM299.483 120.967C299.208 116.797 295.739 113.5 291.5 113.5V114.5C295.209 114.5 298.245 117.385 298.485 121.033L299.483 120.967ZM291.5 113.5C287.261 113.5 283.792 116.797 283.517 120.967L284.515 121.033C284.755 117.385 287.791 114.5 291.5 114.5V113.5ZM284.016 120.5H52.9836V121.5H284.016V120.5ZM53.4825 120.967C53.208 116.797 49.7393 113.5 45.5 113.5V114.5C49.209 114.5 52.2446 117.385 52.4847 121.033L53.4825 120.967ZM45.5 113.5C41.2607 113.5 37.792 116.797 37.5175 120.967L38.5153 121.033C38.7554 117.385 41.791 114.5 45.5 114.5V113.5ZM38.0164 120.5H16V121.5H38.0164V120.5ZM16 120.5C7.99188 120.5 1.5 114.008 1.5 106H0.5C0.5 114.56 7.43959 121.5 16 121.5V120.5ZM1.5 106V16H0.5V106H1.5ZM1.5 16C1.5 7.99187 7.99187 1.5 16 1.5V0.5C7.43959 0.5 0.5 7.43959 0.5 16H1.5ZM16 1.5H38.0164V0.5H16V1.5ZM38.5 1.5C38.5 1.34296 38.5052 1.18718 38.5153 1.03283L37.5175 0.967167C37.5059 1.14334 37.5 1.32102 37.5 1.5H38.5ZM45.5 8.5C41.634 8.5 38.5 5.36599 38.5 1.5H37.5C37.5 5.91828 41.0817 9.5 45.5 9.5V8.5ZM289.151 13.876L292.91 15.2441L293.252 14.3044L289.493 12.9363L289.151 13.876ZM289.45 14.5169L289.792 13.5772L288.852 13.2352L288.51 14.1748L289.45 14.5169ZM292.91 15.2441L289.151 13.876L288.809 14.8157L292.568 16.1838L292.91 15.2441ZM292.611 14.6032L292.269 15.5429L293.208 15.8849L293.55 14.9452L292.611 14.6032ZM293.252 17.1122L289.493 15.7441L289.151 16.6838L292.91 18.0519L293.252 17.1122ZM293.208 18.6927L293.55 17.753L292.611 17.411L292.269 18.3507L293.208 18.6927ZM288.809 17.6235L292.568 18.9915L292.91 18.0519L289.151 16.6838L288.809 17.6235ZM288.852 16.0429L288.51 16.9826L289.45 17.3246L289.792 16.3849L288.852 16.0429ZM289.151 19.4915L292.91 20.8596L293.252 19.9199L289.493 18.5519L289.151 19.4915ZM289.45 20.1324L289.792 19.1927L288.852 18.8507L288.51 19.7904L289.45 20.1324ZM292.91 20.8596L289.151 19.4915L288.809 20.4312L292.568 21.7993L292.91 20.8596ZM292.611 20.2188L292.269 21.1585L293.208 21.5005L293.55 20.5608L292.611 20.2188ZM293.252 22.7277L289.493 21.3596L289.151 22.2993L292.91 23.6674L293.252 22.7277ZM293.208 24.3082L293.55 23.3686L292.611 23.0265L292.269 23.9662L293.208 24.3082ZM288.809 23.239L292.568 24.6071L292.91 23.6674L289.151 22.2993L288.809 23.239ZM288.852 21.6585L288.51 22.5982L289.45 22.9402L289.792 22.0005L288.852 21.6585ZM293.252 11.4966L289.493 10.1285L289.151 11.0682L292.91 12.4363L293.252 11.4966ZM293.208 13.0772L293.55 12.1375L292.611 11.7955L292.269 12.7352L293.208 13.0772ZM288.809 12.0079L292.568 13.376L292.91 12.4363L289.151 11.0682L288.809 12.0079ZM288.852 10.4274L288.51 11.3671L289.45 11.7091L289.792 10.7694L288.852 10.4274ZM289.151 25.1071L292.91 26.4752L293.252 25.5355L289.493 24.1674L289.151 25.1071ZM289.45 25.7479L289.792 24.8082L288.852 24.4662L288.51 25.4059L289.45 25.7479ZM292.91 26.4752L289.151 25.1071L288.809 26.0468L292.568 27.4149L292.91 26.4752ZM292.611 25.8343L292.269 26.774L293.208 27.116L293.55 26.1763L292.611 25.8343ZM293.252 28.3432L289.493 26.9752L289.151 27.9149L292.91 29.2829L293.252 28.3432ZM293.208 29.9238L293.55 28.9841L292.611 28.6421L292.269 29.5818L293.208 29.9238ZM288.809 28.8545L292.568 30.2226L292.91 29.2829L289.151 27.9149L288.809 28.8545ZM288.852 27.274L288.51 28.2137L289.45 28.5557L289.792 27.616L288.852 27.274ZM289.151 30.7226L292.91 32.0907L293.252 31.151L289.493 29.7829L289.151 30.7226ZM289.45 31.3635L289.792 30.4238L288.852 30.0818L288.51 31.0215L289.45 31.3635ZM292.91 32.0907L289.151 30.7226L288.809 31.6623L292.568 33.0304L292.91 32.0907ZM292.611 31.4499L292.269 32.3895L293.208 32.7316L293.55 31.7919L292.611 31.4499ZM293.252 33.9588L289.493 32.5907L289.151 33.5304L292.91 34.8985L293.252 33.9588ZM293.208 35.5393L293.55 34.5996L292.611 34.2576L292.269 35.1973L293.208 35.5393ZM288.809 34.4701L292.568 35.8382L292.91 34.8985L289.151 33.5304L288.809 34.4701ZM288.852 32.8895L288.51 33.8292L289.45 34.1712L289.792 33.2316L288.852 32.8895ZM289.151 36.3382L292.91 37.7062L293.252 36.7666L289.493 35.3985L289.151 36.3382ZM289.45 36.979L289.792 36.0393L288.852 35.6973L288.51 36.637L289.45 36.979ZM292.91 37.7062L289.151 36.3382L288.809 37.2779L292.568 38.6459L292.91 37.7062ZM292.611 37.0654L292.269 38.0051L293.208 38.3471L293.55 37.4074L292.611 37.0654ZM293.252 39.5743L289.493 38.2062L289.151 39.1459L292.91 40.514L293.252 39.5743ZM293.208 41.1549L293.55 40.2152L292.611 39.8732L292.269 40.8129L293.208 41.1549ZM288.809 40.0856L292.568 41.4537L292.91 40.514L289.151 39.1459L288.809 40.0856ZM288.852 38.5051L288.51 39.4448L289.45 39.7868L289.792 38.8471L288.852 38.5051ZM289.151 41.9537L292.91 43.3218L293.252 42.3821L289.493 41.014L289.151 41.9537ZM289.45 42.5946L289.792 41.6549L288.852 41.3129L288.51 42.2525L289.45 42.5946ZM292.91 43.3218L289.151 41.9537L288.809 42.8934L292.568 44.2615L292.91 43.3218ZM292.611 42.6809L292.269 43.6206L293.208 43.9626L293.55 43.0229L292.611 42.6809ZM293.252 45.1899L289.493 43.8218L289.151 44.7615L292.91 46.1296L293.252 45.1899ZM293.208 46.7704L293.55 45.8307L292.611 45.4887L292.269 46.4284L293.208 46.7704ZM288.809 45.7012L292.568 47.0692L292.91 46.1296L289.151 44.7615L288.809 45.7012ZM288.852 44.1206L288.51 45.0603L289.45 45.4023L289.792 44.4626L288.852 44.1206ZM289.151 47.5692L292.91 48.9373L293.252 47.9976L289.493 46.6295L289.151 47.5692ZM289.45 48.2101L289.792 47.2704L288.852 46.9284L288.51 47.8681L289.45 48.2101ZM292.91 48.9373L289.151 47.5692L288.809 48.5089L292.568 49.877L292.91 48.9373ZM292.611 48.2965L292.269 49.2362L293.208 49.5782L293.55 48.6385L292.611 48.2965ZM293.252 50.8054L289.493 49.4373L289.151 50.377L292.91 51.7451L293.252 50.8054ZM293.208 52.3859L293.55 51.4463L292.611 51.1042L292.269 52.0439L293.208 52.3859ZM288.809 51.3167L292.568 52.6848L292.91 51.7451L289.151 50.377L288.809 51.3167ZM288.852 49.7362L288.51 50.6759L289.45 51.0179L289.792 50.0782L288.852 49.7362ZM289.151 53.1848L292.91 54.5529L293.252 53.6132L289.493 52.2451L289.151 53.1848ZM289.45 53.8256L289.792 52.8859L288.852 52.5439L288.51 53.4836L289.45 53.8256ZM292.91 54.5529L289.151 53.1848L288.809 54.1245L292.568 55.4926L292.91 54.5529ZM292.611 53.912L292.269 54.8517L293.208 55.1937L293.55 54.254L292.611 53.912ZM293.252 56.4209L289.493 55.0529L289.151 55.9926L292.91 57.3606L293.252 56.4209ZM293.208 58.0015L293.55 57.0618L292.611 56.7198L292.269 57.6595L293.208 58.0015ZM288.809 56.9322L292.568 58.3003L292.91 57.3606L289.151 55.9926L288.809 56.9322ZM288.852 55.3517L288.51 56.2914L289.45 56.6334L289.792 55.6937L288.852 55.3517ZM289.151 58.8003L292.91 60.1684L293.252 59.2287L289.493 57.8606L289.151 58.8003ZM289.45 59.4412L289.792 58.5015L288.852 58.1595L288.51 59.0992L289.45 59.4412ZM292.91 60.1684L289.151 58.8003L288.809 59.74L292.568 61.1081L292.91 60.1684ZM292.611 59.5275L292.269 60.4672L293.208 60.8093L293.55 59.8696L292.611 59.5275ZM293.252 62.0365L289.493 60.6684L289.151 61.6081L292.91 62.9762L293.252 62.0365ZM293.208 63.617L293.55 62.6773L292.611 62.3353L292.269 63.275L293.208 63.617ZM288.809 62.5478L292.568 63.9159L292.91 62.9762L289.151 61.6081L288.809 62.5478ZM288.852 60.9672L288.51 61.9069L289.45 62.2489L289.792 61.3093L288.852 60.9672ZM289.151 64.4159L292.91 65.7839L293.252 64.8442L289.493 63.4762L289.151 64.4159ZM289.45 65.0567L289.792 64.117L288.852 63.775L288.51 64.7147L289.45 65.0567ZM292.91 65.7839L289.151 64.4159L288.809 65.3556L292.568 66.7236L292.91 65.7839ZM292.611 65.1431L292.269 66.0828L293.208 66.4248L293.55 65.4851L292.611 65.1431ZM293.252 67.652L289.493 66.2839L289.151 67.2236L292.91 68.5917L293.252 67.652ZM293.208 69.2326L293.55 68.2929L292.611 67.9509L292.269 68.8905L293.208 69.2326ZM288.809 68.1633L292.568 69.5314L292.91 68.5917L289.151 67.2236L288.809 68.1633ZM288.852 66.5828L288.51 67.5225L289.45 67.8645L289.792 66.9248L288.852 66.5828ZM289.151 70.0314L292.91 71.3995L293.252 70.4598L289.493 69.0917L289.151 70.0314ZM289.45 70.6722L289.792 69.7326L288.852 69.3905L288.51 70.3302L289.45 70.6722ZM292.91 71.3995L289.151 70.0314L288.809 70.9711L292.568 72.3392L292.91 71.3995ZM292.611 70.7586L292.269 71.6983L293.208 72.0403L293.55 71.1006L292.611 70.7586ZM293.252 73.2676L289.493 71.8995L289.151 72.8392L292.91 74.2073L293.252 73.2676ZM293.208 74.8481L293.55 73.9084L292.611 73.5664L292.269 74.5061L293.208 74.8481ZM288.809 73.7789L292.568 75.1469L292.91 74.2072L289.151 72.8392L288.809 73.7789ZM288.852 72.1983L288.51 73.138L289.45 73.48L289.792 72.5403L288.852 72.1983ZM289.151 75.6469L292.91 77.015L293.252 76.0753L289.493 74.7072L289.151 75.6469ZM289.45 76.2878L289.792 75.3481L288.852 75.0061L288.51 75.9458L289.45 76.2878ZM292.91 77.015L289.151 75.6469L288.809 76.5866L292.568 77.9547L292.91 77.015ZM292.611 76.3742L292.269 77.3139L293.208 77.6559L293.55 76.7162L292.611 76.3742ZM293.252 78.8831L289.493 77.515L289.151 78.4547L292.91 79.8228L293.252 78.8831ZM293.208 80.4636L293.55 79.5239L292.611 79.1819L292.269 80.1216L293.208 80.4636ZM288.809 79.3944L292.568 80.7625L292.91 79.8228L289.151 78.4547L288.809 79.3944ZM288.852 77.8139L288.51 78.7535L289.45 79.0956L289.792 78.1559L288.852 77.8139ZM289.151 81.2625L292.91 82.6306L293.252 81.6909L289.493 80.3228L289.151 81.2625ZM289.45 81.9033L289.792 80.9636L288.852 80.6216L288.51 81.5613L289.45 81.9033ZM292.91 82.6306L289.151 81.2625L288.809 82.2022L292.568 83.5702L292.91 82.6306ZM292.611 81.9897L292.269 82.9294L293.208 83.2714L293.55 82.3317L292.611 81.9897ZM293.252 84.4986L289.493 83.1306L289.151 84.0702L292.91 85.4383L293.252 84.4986ZM293.208 86.0792L293.55 85.1395L292.611 84.7975L292.269 85.7372L293.208 86.0792ZM288.809 85.0099L292.568 86.378L292.91 85.4383L289.151 84.0702L288.809 85.0099ZM288.852 83.4294L288.51 84.3691L289.45 84.7111L289.792 83.7714L288.852 83.4294ZM289.151 86.878L292.91 88.2461L293.252 87.3064L289.493 85.9383L289.151 86.878ZM289.45 87.5189L289.792 86.5792L288.852 86.2372L288.51 87.1769L289.45 87.5189ZM292.91 88.2461L289.151 86.878L288.809 87.8177L292.568 89.1858L292.91 88.2461ZM292.611 87.6052L292.269 88.5449L293.208 88.8869L293.55 87.9473L292.611 87.6052ZM293.252 90.1142L289.493 88.7461L289.151 89.6858L292.91 91.0539L293.252 90.1142ZM293.208 91.6947L293.55 90.755L292.611 90.413L292.269 91.3527L293.208 91.6947ZM288.809 90.6255L292.568 91.9936L292.91 91.0539L289.151 89.6858L288.809 90.6255ZM288.852 89.0449L288.51 89.9846L289.45 90.3266L289.792 89.3869L288.852 89.0449ZM289.151 92.4936L292.91 93.8616L293.252 92.9219L289.493 91.5539L289.151 92.4936ZM289.45 93.1344L289.792 92.1947L288.852 91.8527L288.51 92.7924L289.45 93.1344ZM292.91 93.8616L289.151 92.4936L288.809 93.4332L292.568 94.8013L292.91 93.8616ZM292.611 93.2208L292.269 94.1605L293.208 94.5025L293.55 93.5628L292.611 93.2208ZM293.252 95.7297L289.493 94.3616L289.151 95.3013L292.91 96.6694L293.252 95.7297ZM293.208 97.3103L293.55 96.3706L292.611 96.0286L292.269 96.9682L293.208 97.3103ZM288.809 96.241L292.568 97.6091L292.91 96.6694L289.151 95.3013L288.809 96.241ZM288.852 94.6605L288.51 95.6002L289.45 95.9422L289.792 95.0025L288.852 94.6605ZM289.151 98.1091L292.91 99.4772L293.252 98.5375L289.493 97.1694L289.151 98.1091ZM289.45 98.7499L289.792 97.8103L288.852 97.4682L288.51 98.4079L289.45 98.7499ZM292.91 99.4772L289.151 98.1091L288.809 99.0488L292.568 100.417L292.91 99.4772ZM292.611 98.8363L292.269 99.776L293.208 100.118L293.55 99.1783L292.611 98.8363ZM293.252 101.345L289.493 99.9772L289.151 100.917L292.91 102.285L293.252 101.345ZM293.208 102.926L293.55 101.986L292.611 101.644L292.269 102.584L293.208 102.926ZM288.809 101.857L292.568 103.225L292.91 102.285L289.151 100.917L288.809 101.857ZM288.852 100.276L288.51 101.216L289.45 101.558L289.792 100.618L288.852 100.276ZM289.151 103.725L292.91 105.093L293.252 104.153L289.493 102.785L289.151 103.725ZM289.45 104.365L289.792 103.426L288.852 103.084L288.51 104.023L289.45 104.365ZM292.91 105.093L289.151 103.725L288.809 104.664L292.568 106.032L292.91 105.093ZM292.611 104.452L292.269 105.392L293.208 105.734L293.55 104.794L292.611 104.452ZM293.252 106.961L289.493 105.593L289.151 106.532L292.91 107.9L293.252 106.961ZM293.208 108.541L293.55 107.602L292.611 107.26L292.269 108.199L293.208 108.541ZM288.809 107.472L292.568 108.84L292.91 107.9L289.151 106.532L288.809 107.472ZM288.852 105.892L288.51 106.831L289.45 107.173L289.792 106.234L288.852 105.892ZM289.151 109.34L292.91 110.708L293.252 109.769L289.493 108.4L289.151 109.34ZM289.45 109.981L289.792 109.041L288.852 108.699L288.51 109.639L289.45 109.981ZM292.91 110.708L289.151 109.34L288.809 110.28L292.568 111.648L292.91 110.708ZM292.611 110.067L292.269 111.007L293.208 111.349L293.55 110.409L292.611 110.067ZM293.252 112.576L289.493 111.208L289.151 112.148L292.91 113.516L293.252 112.576ZM293.208 114.157L293.55 113.217L292.611 112.875L292.269 113.815L293.208 114.157ZM288.809 113.088L292.568 114.456L292.91 113.516L289.151 112.148L288.809 113.088ZM288.852 111.507L288.51 112.447L289.45 112.789L289.792 111.849L288.852 111.507Z" fill="#2889C1" mask="url(#path-1-outside-1_619_8)"/>
<path fill-rule="evenodd" clip-rule="evenodd" d="M293.081 9.1587L292.473 8.93749C296.155 8.46055 299 5.31248 299 1.5C299 1.33199 298.994 1.16526 298.984 1H328C336.284 1 343 7.71573 343 16V106C343 114.284 336.284 121 328 121H298.984C298.726 117.091 295.474 114 291.5 114C291.332 114 291.165 114.006 291 114.016V113.353L292.739 113.986L293.081 113.046L291 112.289V110.545L292.739 111.178L293.081 110.238L291 109.481V107.738L292.739 108.37L293.081 107.431L291 106.673V104.93L292.739 105.563L293.081 104.623L291 103.866V102.122L292.739 102.755L293.081 101.815L291 101.058V99.3142L292.739 99.947L293.081 99.0073L291 98.2501V96.5065L292.739 97.1393L293.081 96.1996L291 95.4423V93.6987L292.739 94.3315L293.081 93.3918L291 92.6345V90.8909L292.739 91.5237L293.081 90.584L291 89.8268V88.0832L292.739 88.7159L293.081 87.7763L291 87.019V85.2754L292.739 85.9082L293.081 84.9685L291 84.2112V82.4676L292.739 83.1004L293.081 82.1607L291 81.4035V79.6599L292.739 80.2926L293.081 79.3529L291 78.5957V76.8521L292.739 77.4849L293.081 76.5452L291 75.7879V74.0443L292.739 74.6771L293.081 73.7374L291 72.9801V71.2365L292.739 71.8693L293.081 70.9296L291 70.1724V68.4288L292.739 69.0616L293.081 68.1219L291 67.3646V65.621L292.739 66.2538L293.081 65.3141L291 64.5568V62.8132L292.739 63.446L293.081 62.5063L291 61.7491V60.0055L292.739 60.6382L293.081 59.6986L291 58.9413V57.1977L292.739 57.8305L293.081 56.8908L291 56.1335V54.3899L292.739 55.0227L293.081 54.083L291 53.3258V51.5822L292.739 52.2149L293.081 51.2752L291 50.518V48.7744L292.739 49.4072L293.081 48.4675L291 47.7102V45.9666L292.739 46.5994L293.081 45.6597L291 44.9025V43.1589L292.739 43.7916L293.081 42.8519L291 42.0947V40.3511L292.739 40.9839L293.081 40.0442L291 39.2869V37.5433L292.739 38.1761L293.081 37.2364L291 36.4791V34.7355L292.739 35.3683L293.081 34.4286L291 33.6714V31.9278L292.739 32.5606L293.081 31.6209L291 30.8636V29.12L292.739 29.7528L293.081 28.8131L291 28.0558V26.3122L292.739 26.945L293.081 26.0053L291 25.2481V23.5045L292.739 24.1372L293.081 23.1975L291 22.4403V20.6967L292.739 21.3295L293.081 20.3898L291 19.6325V17.8889L292.739 18.5217L293.081 17.582L291 16.8248V15.0812L292.739 15.7139L293.081 14.7742L291 14.017V12.2734L292.739 12.9062L293.081 11.9665L291 11.2092V9.46562L292.739 10.0984L293.081 9.1587Z" fill="#2889C1"/>
</svg>
