<svg width="342" height="120" viewBox="0 0 342 120" fill="none" xmlns="http://www.w3.org/2000/svg">
<path fill-rule="evenodd" clip-rule="evenodd" d="M44.5 8C48.6421 8 52 4.64214 52 0.5C52 0.331986 51.9945 0.165262 51.9836 0H283.016C283.006 0.165262 283 0.331986 283 0.5C283 3.77778 285.103 6.56444 288.033 7.58473L287.98 7.73031L291.739 9.09839L292.081 8.1587L291.473 7.93749C295.155 7.46055 298 4.31248 298 0.5C298 0.331986 297.994 0.165262 297.984 0H327C335.284 0 342 6.71573 342 15V105C342 113.284 335.284 120 327 120H297.984C297.726 116.091 294.474 113 290.5 113C286.526 113 283.274 116.091 283.016 120H51.9836C51.7263 116.091 48.4741 113 44.5 113C40.5259 113 37.2737 116.091 37.0164 120H15C6.71573 120 0 113.284 0 105V15C0 6.71573 6.71573 0 15 0H37.0164C37.0055 0.165262 37 0.331986 37 0.5C37 4.64214 40.3579 8 44.5 8ZM292.081 13.7742L288.322 12.4062L287.98 13.3459L291.739 14.7139L292.081 13.7742ZM288.322 15.2139L292.081 16.582L291.739 17.5217L287.98 16.1536L288.322 15.2139ZM292.081 19.3898L288.322 18.0217L287.98 18.9614L291.739 20.3295L292.081 19.3898ZM288.322 20.8295L292.081 22.1975L291.739 23.1372L287.98 21.7692L288.322 20.8295ZM288.322 9.59839L292.081 10.9665L291.739 11.9062L287.98 10.5381L288.322 9.59839ZM292.081 25.0053L288.322 23.6372L287.98 24.5769L291.739 25.945L292.081 25.0053ZM288.322 26.445L292.081 27.8131L291.739 28.7528L287.98 27.3847L288.322 26.445ZM292.081 30.6209L288.322 29.2528L287.98 30.1925L291.739 31.5606L292.081 30.6209ZM288.322 32.0605L292.081 33.4286L291.739 34.3683L287.98 33.0002L288.322 32.0605ZM292.081 36.2364L288.322 34.8683L287.98 35.808L291.739 37.1761L292.081 36.2364ZM288.322 37.6761L292.081 39.0442L291.739 39.9839L287.98 38.6158L288.322 37.6761ZM292.081 41.8519L288.322 40.4839L287.98 41.4235L291.739 42.7916L292.081 41.8519ZM288.322 43.2916L292.081 44.6597L291.739 45.5994L287.98 44.2313L288.322 43.2916ZM292.081 47.4675L288.322 46.0994L287.98 47.0391L291.739 48.4072L292.081 47.4675ZM288.322 48.9072L292.081 50.2752L291.739 51.2149L287.98 49.8469L288.322 48.9072ZM292.081 53.083L288.322 51.7149L287.98 52.6546L291.739 54.0227L292.081 53.083ZM288.322 54.5227L292.081 55.8908L291.739 56.8305L287.98 55.4624L288.322 54.5227ZM292.081 58.6986L288.322 57.3305L287.98 58.2702L291.739 59.6382L292.081 58.6986ZM288.322 60.1382L292.081 61.5063L291.739 62.446L287.98 61.0779L288.322 60.1382ZM292.081 64.3141L288.322 62.946L287.98 63.8857L291.739 65.2538L292.081 64.3141ZM288.322 65.7538L292.081 67.1219L291.739 68.0616L287.98 66.6935L288.322 65.7538ZM292.081 69.9296L288.322 68.5616L287.98 69.5012L291.739 70.8693L292.081 69.9296ZM288.322 71.3693L292.081 72.7374L291.739 73.6771L287.98 72.309L288.322 71.3693ZM292.081 75.5452L288.322 74.1771L287.98 75.1168L291.739 76.4849L292.081 75.5452ZM288.322 76.9849L292.081 78.3529L291.739 79.2926L287.98 77.9246L288.322 76.9849ZM292.081 81.1607L288.322 79.7926L287.98 80.7323L291.739 82.1004L292.081 81.1607ZM288.322 82.6004L292.081 83.9685L291.739 84.9082L287.98 83.5401L288.322 82.6004ZM292.081 86.7763L288.322 85.4082L287.98 86.3479L291.739 87.7159L292.081 86.7763ZM288.322 88.2159L292.081 89.584L291.739 90.5237L287.98 89.1556L288.322 88.2159ZM292.081 92.3918L288.322 91.0237L287.98 91.9634L291.739 93.3315L292.081 92.3918ZM288.322 93.8315L292.081 95.1996L291.739 96.1393L287.98 94.7712L288.322 93.8315ZM292.081 98.0073L288.322 96.6393L287.98 97.5789L291.739 98.947L292.081 98.0073ZM288.322 99.447L292.081 100.815L291.739 101.755L287.98 100.387L288.322 99.447ZM292.081 103.623L288.322 102.255L287.98 103.194L291.739 104.563L292.081 103.623ZM288.322 105.063L292.081 106.431L291.739 107.37L287.98 106.002L288.322 105.063ZM292.081 109.238L288.322 107.87L287.98 108.81L291.739 110.178L292.081 109.238ZM288.322 110.678L292.081 112.046L291.739 112.986L287.98 111.618L288.322 110.678Z" fill="white"/>
</svg>
