<svg width="54" height="48" viewBox="0 0 54 48" fill="none" xmlns="http://www.w3.org/2000/svg">
<path d="M28.1908 5.13026L29.9009 9.82873M33.3211 19.2257L35.0312 23.9241M38.4514 33.321L40.1615 38.0195M4.69846 13.6808L37.5877 1.71006C38.8338 1.25652 40.2091 1.31656 41.4109 1.87699C42.6127 2.43741 43.5427 3.45232 43.9963 4.69843L46.5614 11.7461C45.3153 12.1997 44.3004 13.1297 43.74 14.3315C43.1796 15.5333 43.1195 16.9086 43.5731 18.1547C44.0266 19.4008 44.9566 20.4157 46.1584 20.9761C47.3603 21.5365 48.7355 21.5966 49.9816 21.143L52.5468 28.1907C53.0003 29.4369 52.9403 30.8121 52.3798 32.0139C51.8194 33.2158 50.8045 34.1458 49.5584 34.5993L16.6692 46.57C15.4231 47.0236 14.0478 46.9635 12.846 46.4031C11.6441 45.8427 10.7142 44.8278 10.2606 43.5816L7.69545 36.534C8.94156 36.0804 9.95646 35.1504 10.5169 33.9486C11.0773 32.7467 11.1374 31.3715 10.6838 30.1254C10.2303 28.8793 9.30028 27.8644 8.09844 27.304C6.89661 26.7435 5.52136 26.6835 4.27525 27.137L1.7101 20.0893C1.25655 18.8432 1.3166 17.468 1.87702 16.2661C2.43745 15.0643 3.45235 14.1343 4.69846 13.6808Z" stroke="#1A5890" stroke-width="2" stroke-linecap="round" stroke-linejoin="round"/>
</svg>
