<svg width="200" height="200" viewBox="0 0 200 200" fill="none" xmlns="http://www.w3.org/2000/svg">
<path d="M68.724 68L76.448 84.0689H88.034L80.31 68H88.034L95.758 84.0689H107.344L99.62 68H107.344L115.068 84.0689H126.654L118.93 68H130.516C132.64 68 134.459 68.7874 135.973 70.3621C137.487 71.9369 138.243 73.8277 138.24 76.0345V124.241C138.24 126.451 137.484 128.343 135.973 129.918C134.462 131.492 132.643 132.278 130.516 132.276H68.724C66.5999 132.276 64.7822 131.49 63.2709 129.918C61.7595 128.346 61.0026 126.453 61 124.241V76.0345C61 73.825 61.757 71.9342 63.2709 70.3621C64.7848 68.7901 66.6025 68.0027 68.724 68ZM68.724 92.1034V124.241H130.516V92.1034H68.724Z" fill="#2889C1"/>
<path d="M105.978 106.126C106.575 106.484 106.575 107.38 105.978 107.739L95.758 113.877C95.1611 114.235 94.415 113.787 94.415 113.07V100.794C94.415 100.077 95.1611 99.6291 95.758 99.9876L105.978 106.126Z" fill="#2889C1"/>
</svg>
