<svg width="200" height="200" viewBox="0 0 200 200" fill="none" xmlns="http://www.w3.org/2000/svg">
<path d="M68.0607 83.7769C67.7872 84.5067 67.809 85.3152 68.1212 86.029C68.4335 86.7428 69.0113 87.3051 69.7309 87.5953C70.4505 87.8854 71.2545 87.8804 71.9704 87.5812C72.6864 87.282 73.2572 86.7124 73.5606 85.9948L68.0607 83.7769ZM127.327 85.9948C127.466 86.3659 127.677 86.7055 127.948 86.9935C128.22 87.2814 128.545 87.5121 128.906 87.6718C129.267 87.8316 129.656 87.9173 130.05 87.9239C130.445 87.9305 130.836 87.8579 131.202 87.7103C131.568 87.5627 131.901 87.3431 132.182 87.0644C132.462 86.7856 132.685 86.4533 132.836 86.087C132.988 85.7207 133.065 85.3277 133.063 84.931C133.061 84.5343 132.981 84.142 132.827 83.7769L127.327 85.9948ZM138.967 90.0489V109.986H144.893V90.0429L138.967 90.0489ZM122.437 126.619H119.225V132.581H122.437V126.619ZM81.6741 126.619H78.4619V132.581H81.6741V126.619ZM61.9266 109.986V90.0429H56V109.986H61.9266ZM61.8555 90.1323C87.08 82.881 113.819 82.881 139.044 90.1323L140.668 84.4029C114.382 76.8474 86.5176 76.8474 60.2316 84.4029L61.8555 90.1323ZM78.4619 126.619C74.0764 126.619 69.8706 124.867 66.7697 121.748C63.6687 118.628 61.9266 114.397 61.9266 109.986H56C56 115.978 58.3665 121.726 62.5789 125.963C66.7913 130.201 72.5046 132.581 78.4619 132.581V126.619ZM80.548 127.293C80.6599 127.091 80.8231 126.922 81.0208 126.804C81.2186 126.685 81.444 126.622 81.6741 126.619V132.581C82.5077 132.583 83.3263 132.358 84.043 131.929C84.7598 131.501 85.354 130.886 85.7516 130.149L80.548 127.293ZM85.7516 130.149C92.099 118.446 108.8 118.446 115.154 130.149L120.351 127.293C111.758 111.446 89.1357 111.446 80.548 127.293L85.7516 130.149ZM119.225 126.619C119.699 126.619 120.126 126.876 120.351 127.293L115.154 130.149C115.551 130.886 116.139 131.501 116.856 131.929C117.573 132.358 118.391 132.583 119.225 132.581V126.619ZM138.973 109.986C138.973 114.397 137.231 118.628 134.13 121.748C131.029 124.867 126.823 126.619 122.437 126.619V132.581C128.395 132.581 134.108 130.201 138.32 125.963C142.533 121.726 144.899 115.978 144.899 109.986H138.973ZM144.899 90.0429C144.899 88.7679 144.486 87.5278 143.722 86.5101C142.959 85.4925 141.886 84.7528 140.668 84.4029L139.044 90.1323C139.025 90.1246 139.009 90.1124 138.997 90.0968C138.984 90.0812 138.976 90.0626 138.973 90.0429H144.899ZM61.9266 90.0429C61.9232 90.0626 61.9149 90.0812 61.9024 90.0968C61.89 90.1124 61.8739 90.1246 61.8555 90.1323L60.2316 84.4029C59.0138 84.7525 57.9422 85.4973 57.1788 86.5137C56.4154 87.5302 56.0016 88.769 56 90.0429H61.9266ZM71.0062 76.3722L68.0607 83.7769L73.5606 85.9948L76.512 78.5841L71.0062 76.3722ZM124.387 78.5781L127.333 85.9948L132.827 83.7769L129.887 76.3722L124.387 78.5781ZM84.7678 72.9619H116.131V67H84.7678V72.9619ZM129.887 76.3722C128.788 73.606 126.89 71.2347 124.438 69.5641C121.986 67.8936 119.093 67.0005 116.131 67V72.9619C117.909 72.9616 119.645 73.4971 121.116 74.4993C122.588 75.5014 123.727 76.9242 124.387 78.5841L129.887 76.3722ZM76.512 78.5781C77.1728 76.9194 78.3125 75.4978 79.784 74.4968C81.2555 73.4958 82.9914 72.9612 84.7678 72.9619V67C81.8064 67.0005 78.9132 67.8936 76.4613 69.5641C74.0094 71.2347 72.1054 73.606 71.0062 76.3722L76.512 78.5781Z" fill="#2889C1"/>
<path d="M89.0639 104.572H89.2233L93.2538 92.002H97.0339L91.341 108.488H86.9462L81.2306 92.002H85.0562L89.0639 104.572ZM106.188 92.002H112.655C113.892 92.002 114.951 92.2221 115.832 92.6623C116.72 93.1026 117.395 93.7288 117.858 94.541C118.321 95.3456 118.553 96.2906 118.553 97.376C118.553 98.4994 118.302 99.4634 117.801 100.268C117.3 101.073 116.579 101.676 115.638 102.078L119.145 108.488H115.365L112.211 102.636H109.604V108.488H106.188V92.002ZM112.017 99.8581C114.021 99.8581 115.023 99.0307 115.023 97.376C115.023 96.5335 114.773 95.8959 114.272 95.4632C113.771 95.023 113.019 94.8028 112.017 94.8028H109.604V99.8581H112.017Z" fill="#2889C1"/>
</svg>
